<?xml version="1.0" encoding="UTF-8" standalone="no"?>
<svg
   xmlns:dc="http://purl.org/dc/elements/1.1/"
   xmlns:cc="http://creativecommons.org/ns#"
   xmlns:rdf="http://www.w3.org/1999/02/22-rdf-syntax-ns#"
   xmlns:svg="http://www.w3.org/2000/svg"
   xmlns="http://www.w3.org/2000/svg"
   xmlns:sodipodi="http://sodipodi.sourceforge.net/DTD/sodipodi-0.dtd"
   xmlns:inkscape="http://www.inkscape.org/namespaces/inkscape"
   version="1.1"
   id="svg5401"
   viewBox="0 0 1308.0004 1062"
   height="1062"
   width="1308"
   inkscape:version="0.91 r13725"
   sodipodi:docname="logo_in_menu.svg">
  <sodipodi:namedview
     pagecolor="#ffffff"
     bordercolor="#666666"
     borderopacity="1"
     objecttolerance="10"
     gridtolerance="10"
     guidetolerance="10"
     inkscape:pageopacity="0"
     inkscape:pageshadow="2"
     inkscape:window-width="1280"
     inkscape:window-height="967"
     id="namedview24"
     showgrid="false"
     fit-margin-top="0"
     fit-margin-left="0"
     fit-margin-right="0"
     fit-margin-bottom="0"
     inkscape:zoom="0.2918455"
     inkscape:cx="150.28773"
     inkscape:cy="424.5453"
     inkscape:window-x="0"
     inkscape:window-y="0"
     inkscape:window-maximized="1"
     inkscape:current-layer="svg5401"
     units="px" />
  <defs
     id="defs5403" />
  <metadata
     id="metadata5406">
    <rdf:RDF>
      <cc:Work
         rdf:about="">
        <dc:format>image/svg+xml</dc:format>
        <dc:type
           rdf:resource="http://purl.org/dc/dcmitype/StillImage" />
        <dc:title></dc:title>
      </cc:Work>
    </rdf:RDF>
  </metadata>
  <path
     style="fill:none;stroke:#000000;stroke-width:35.84000778;stroke-linecap:butt;stroke-linejoin:miter;stroke-miterlimit:4;stroke-dasharray:none;stroke-opacity:1"
     d="m 309.42768,731.37845 c 29.7028,-107.07158 166.4544,-137.1722 222.8135,-79.51189 18.2363,26.26079 50.7039,52.2608 78.1252,102.70979 42.5045,78.1987 276.50672,-53.65579 305.71422,11.4286 72.571,76.8285 87.4659,126.6917 40,177.1429 -36.3348,54.50226 -164.3636,-32.1548 -205.7143,-25.7143 -189.60672,29.532 -264.14092,107.28755 -399.99992,-28.5714 -39.2289,-48.8811 -73.2738,-99.5315 -40.9387,-157.4837 z"
     id="path5335"
     inkscape:connector-curvature="0"
     sodipodi:nodetypes="ccsccscc" />
  <path
     style="fill:none;stroke:#000000;stroke-width:35.84000778;stroke-linecap:butt;stroke-linejoin:miter;stroke-miterlimit:4;stroke-dasharray:none;stroke-opacity:1"
     d="m 405.06383,596.28517 -680.2646,-59.51546"
     id="path5339"
     inkscape:connector-curvature="0" />
  <path
     style="fill:none;stroke:#000000;stroke-width:35.84000778;stroke-linecap:butt;stroke-linejoin:miter;stroke-miterlimit:4;stroke-dasharray:none;stroke-opacity:1"
     d="M 511.41898,445.30916 96.739678,205.89402"
     id="path5341"
     inkscape:connector-curvature="0" />
  <path
     style="fill:none;stroke:#000000;stroke-width:35.84000778;stroke-linecap:butt;stroke-linejoin:miter;stroke-miterlimit:4;stroke-dasharray:none;stroke-opacity:1"
     d="M 668.30948,421.06558 667.99298,21.524921"
     id="path5345"
     inkscape:connector-curvature="0"
     sodipodi:nodetypes="cc" />
  <path
     style="fill:none;stroke:#000000;stroke-width:35.84000778;stroke-linecap:butt;stroke-linejoin:miter;stroke-miterlimit:4;stroke-dasharray:none;stroke-opacity:1"
     d="M 802.3428,469.55275 1060.9419,267.52222"
     id="path5347"
     inkscape:connector-curvature="0"
     sodipodi:nodetypes="cc" />
  <path
     style="fill:none;stroke:#000000;stroke-width:35.84000778;stroke-linecap:butt;stroke-linejoin:miter;stroke-miterlimit:4;stroke-dasharray:none;stroke-opacity:1"
     d="m 887.2772,635.8529 267.7847,-9.35125"
     id="path5349"
     inkscape:connector-curvature="0"
     sodipodi:nodetypes="cc" />
  <path
     style="fill:none;stroke:#000000;stroke-width:35.84000778;stroke-miterlimit:4;stroke-dasharray:none;stroke-opacity:1"
     d="m 634.43468,770.56065 c -7.9668,-3.6471 -18.6873,-15.087 -28.2863,-30.1845 -29.4013,-46.24269 -74.5504,-96.89169 -95.0897,-106.67308 -10.465,-4.98379 -19.1018,-10.9866 -19.1929,-13.33971 -0.2844,-7.3469 27.9567,-51.60183 42.4805,-66.56863 33.776,-34.80609 88.0824,-55.31339 134.9009,-50.94139 35.3269,3.2988 77.52632,23.6932 104.18322,50.35009 23.7583,23.75821 46.8199,66.88013 53.8448,100.68183 4.6647,22.44539 3.4004,87.69649 -1.8,92.89689 -1.3529,1.3528 -25.6395,7.6153 -53.9702,13.9166 -63.97512,14.2293 -118.89812,18.1809 -137.07032,9.8619 z"
     id="path5387"
     inkscape:connector-curvature="0" />
  <circle
     style="fill:#000000;fill-opacity:1;stroke:#000000;stroke-width:731.7331543;stroke-miterlimit:4;stroke-dasharray:none;stroke-opacity:1"
     id="path3075"
     cy="-784.30896"
     cx="600.11835"
     r="0" />
  <circle
     style="fill:#000000;fill-opacity:1;stroke:#000000;stroke-width:731.7331543;stroke-miterlimit:4;stroke-dasharray:none;stroke-opacity:1"
     id="path3075-0"
     cx="754.86865"
     cy="666.13354"
     r="20" />
  <circle
     style="fill:#000000;fill-opacity:1;stroke:#000000;stroke-width:731.7331543;stroke-miterlimit:4;stroke-dasharray:none;stroke-opacity:1"
     id="path3075-0-3"
     cx="754.8689"
     cy="-743.75006"
     r="0" />
  <ellipse
     style="fill:#000000;fill-opacity:1;stroke:#000000;stroke-width:731.7331543;stroke-miterlimit:4;stroke-dasharray:none;stroke-opacity:1"
     id="path3075-0-6"
     cx="592.77954"
     cy="621.58942"
     rx="20.000006"
     ry="20.000004" />
  <path
     style="fill:#000000;fill-opacity:1;fill-rule:evenodd;stroke:none;stroke-width:731.73297119;stroke-linejoin:miter;stroke-miterlimit:4;stroke-dasharray:none;stroke-opacity:1"
     id="path4169"
     sodipodi:type="arc"
     sodipodi:cx="752.96686"
     sodipodi:cy="660.99359"
     sodipodi:rx="31.694851"
     sodipodi:ry="30.838236"
     sodipodi:start="0"
     sodipodi:end="6.2201266"
     d="m 784.66171,660.99359 a 31.694851,30.838236 0 0 1 -31.19521,30.83441 31.694851,30.838236 0 0 1 -32.17874,-29.86226 31.694851,30.838236 0 0 1 30.18068,-31.7759 31.694851,30.838236 0 0 1 33.13027,28.86042 l -31.63185,1.94333 z" />
  <path
     style="fill:#000000;fill-opacity:1;fill-rule:evenodd;stroke:none;stroke-width:731.73297119;stroke-linejoin:miter;stroke-miterlimit:4;stroke-dasharray:none;stroke-opacity:1"
     id="path4169-7"
     sodipodi:type="arc"
     sodipodi:cx="591.06635"
     sodipodi:cy="622.44604"
     sodipodi:rx="31.69486"
     sodipodi:ry="30.838242"
     sodipodi:start="0"
     sodipodi:end="6.2201266"
     d="m 622.76121,622.44604 a 31.69486,30.838242 0 0 1 -31.19523,30.83441 31.69486,30.838242 0 0 1 -32.17874,-29.86226 31.69486,30.838242 0 0 1 30.18069,-31.7759 31.69486,30.838242 0 0 1 33.13028,28.86042 l -31.63186,1.94333 z" />
</svg>
