<?xml version="1.0" encoding="UTF-8" standalone="no"?>
<svg
   xmlns:dc="http://purl.org/dc/elements/1.1/"
   xmlns:cc="http://creativecommons.org/ns#"
   xmlns:rdf="http://www.w3.org/1999/02/22-rdf-syntax-ns#"
   xmlns:svg="http://www.w3.org/2000/svg"
   xmlns="http://www.w3.org/2000/svg"
   xmlns:xlink="http://www.w3.org/1999/xlink"
   xmlns:sodipodi="http://sodipodi.sourceforge.net/DTD/sodipodi-0.dtd"
   xmlns:inkscape="http://www.inkscape.org/namespaces/inkscape"
   viewBox="0 0 1024 768"
   version="1.1"
   id="svg86"
   sodipodi:docname="sunset-40298_v3.svg"
   inkscape:version="0.92.2 (5c3e80d, 2017-08-06)">
  <metadata
     id="metadata90">
    <rdf:RDF>
      <cc:Work
         rdf:about="">
        <dc:format>image/svg+xml</dc:format>
        <dc:type
           rdf:resource="http://purl.org/dc/dcmitype/StillImage" />
        <dc:title></dc:title>
      </cc:Work>
    </rdf:RDF>
  </metadata>
  <sodipodi:namedview
     pagecolor="#878787"
     bordercolor="#666666"
     borderopacity="1"
     objecttolerance="10"
     gridtolerance="10"
     guidetolerance="10"
     inkscape:pageopacity="0"
     inkscape:pageshadow="2"
     inkscape:window-width="1280"
     inkscape:window-height="968"
     id="namedview88"
     showgrid="false"
     inkscape:zoom="0.61458333"
     inkscape:cx="515.81091"
     inkscape:cy="588.56979"
     inkscape:window-x="0"
     inkscape:window-y="0"
     inkscape:window-maximized="1"
     inkscape:current-layer="svg86" />
  <defs
     id="defs42">
    <clipPath
       id="n">
      <path
         d="m-152.74 126.57h1024v426.74h-1024z"
         id="path2" />
    </clipPath>
    <filter
       id="m"
       x="-.22642"
       y="-.22642"
       width="1.4528"
       height="1.4528">
      <feGaussianBlur
         stdDeviation="2.69542"
         id="feGaussianBlur5" />
    </filter>
    <filter
       id="l"
       x="-.18044"
       y="-.43295"
       width="1.3609"
       height="1.8659">
      <feGaussianBlur
         stdDeviation="76.98284"
         id="feGaussianBlur8" />
    </filter>
    <linearGradient
       id="a">
      <stop
         offset="0"
         id="stop11" />
      <stop
         stop-opacity="0"
         offset="1"
         id="stop13" />
    </linearGradient>
    <linearGradient
       id="b">
      <stop
         stop-color="#ff0"
         offset="0"
         id="stop16" />
      <stop
         stop-color="#ff0"
         stop-opacity="0"
         offset="1"
         id="stop18" />
    </linearGradient>
    <linearGradient
       id="c"
       x1="405.53"
       x2="403.3"
       y1="589.03"
       y2="628.86"
       gradientUnits="userSpaceOnUse">
      <stop
         stop-color="#fc0"
         offset="0"
         id="stop21" />
      <stop
         stop-color="#fc0"
         stop-opacity="0"
         offset="1"
         id="stop23" />
    </linearGradient>
    <linearGradient
       id="h"
       x1="144.83"
       x2="246.49"
       y1="-409.91"
       y2="868.82"
       gradientTransform="matrix(0.99996,0,0,0.55565,85.621949,-308.96808)"
       gradientUnits="userSpaceOnUse">
      <stop
         offset="0"
         id="stop26" />
      <stop
         stop-color="#f95"
         offset="1"
         id="stop28" />
    </linearGradient>
    <linearGradient
       id="k"
       x1="-89.059"
       x2="-88.166"
       y1="553.54"
       y2="588"
       gradientUnits="userSpaceOnUse"
       xlink:href="#a"
       gradientTransform="translate(152.78,-126.57)" />
    <linearGradient
       id="j"
       x1="578.25"
       x2="555.4"
       y1="601.03"
       y2="613.17"
       gradientUnits="userSpaceOnUse"
       xlink:href="#a"
       gradientTransform="translate(152.78,-126.57)" />
    <linearGradient
       id="i"
       x1="468.64"
       x2="470.06"
       y1="586.03"
       y2="637.24"
       gradientUnits="userSpaceOnUse"
       xlink:href="#a"
       gradientTransform="translate(152.78,-126.57)" />
    <radialGradient
       id="f"
       cx="50"
       cy="492.36"
       r="14.286"
       gradientUnits="userSpaceOnUse"
       gradientTransform="matrix(2.5549,0,0,4.9901,345.07386,-2545.6056)">
      <stop
         stop-color="#fff"
         offset="0"
         id="stop34" />
      <stop
         stop-color="#fff"
         stop-opacity="0"
         offset="1"
         id="stop36" />
    </radialGradient>
    <radialGradient
       id="d"
       cx="50"
       cy="493.59"
       r="14.286"
       gradientTransform="matrix(0.87603,-3.831e-7,3.7949e-7,0.86777,6.1982,65.106)"
       gradientUnits="userSpaceOnUse"
       xlink:href="#b" />
    <radialGradient
       id="e"
       cx="49.143"
       cy="645.59"
       r="512.5"
       gradientTransform="matrix(1.0722,0,0,0.55641,12.349,104.99)"
       gradientUnits="userSpaceOnUse"
       xlink:href="#b" />
    <radialGradient
       id="g"
       cx="49.143"
       cy="645.59"
       r="512.5"
       gradientTransform="matrix(1.0723,0,0,-0.43733,165.101,783.68)"
       gradientUnits="userSpaceOnUse"
       xlink:href="#b" />
  </defs>
  <path
     style="fill-rule:evenodd"
     inkscape:connector-curvature="0"
     id="path56"
     d="m 1017.48,272.08 -7.0604,10.592 3.0304,9.5919 -4.0613,5.5614 -7.5603,-9.5919 -6.6856,-8.7171 1.8744,7.8422 -3.4053,0.87484 -0.49986,-4.6554 -8.8412,-6.4675 c 0,0 -0.24992,3.8054 -0.24993,4.4367 -10e-6,0.6313 3.8114,4.0305 3.8114,4.0305 v 3.1556 l -7.0917,-5.8114 3.2803,10.123 -5.1548,-4.6866 2.2494,11.873 -3.6552,0.12498 -5.8108,-13.372 2.6555,10.092 c 0,0 -2.7728,0.62486 -3.5302,0.62487 -0.7574,10e-6 -0.12496,-3.6556 -0.12497,-3.6556 l -3.1553,0.12498 1.6558,-5.0615 -7.0917,-9.9668 0.37489,9.217 -2.3743,1.531 -4.1863,1.1248 3.0304,-2.9057 0.12496,-8.967 -4.155,1.6559 0.37489,6.0613 -2.5305,-1.156 -1.1247,6.1863 -7.4666,-4.6554 6.0607,10.092 0.12496,9.4669 -4.5299,-4.2804 -4.5299,-3.8118 -0.15621,6.1863 -6.5606,-6.0614 -1.1247,4.9366 -3.5302,-0.74986 1.7495,-6.1863 -1.8745,-1.6559 -5.5609,-10.842 -1.6245,6.1863 3.9051,3.4056 -3.2803,1.2498 -0.78102,4.3117 c 0,0 4.0588,2.1195 4.3112,2.6245 0.2524,0.505 -3e-5,4.3028 0,5.1865 3e-5,0.8837 -4.8111,-3.0307 -4.8111,-3.0307 v 5.5614 c 0,0 -5.1809,-4.0267 -5.6858,-4.4054 -0.5049,-0.3787 6.7168,8.5609 6.7168,8.5609 0,0 -5.9307,2.2808 -6.4356,2.2808 -0.5049,0 -6.0607,-9.8419 -6.0608,-9.8419 l -0.90598,11.998 3.9364,8.5609 h -7.1542 l 1.812,8.2172 -7.4978,-3.2181 v 4.999 l -4.9986,-1.406 1.0622,6.0613 0.34365,7.4986 10.372,15.716 c 0,0 1.0622,6.0703 1.0622,7.4986 0,1.4283 -19.994,-32.869 -19.994,-32.869 l -1.4371,6.78 6.092,9.3107 -5.7171,-2.4995 -6.7793,-12.154 0.34365,16.434 11.059,9.9981 -4.28,3.9055 0.71855,6.4363 -16.058,-19.996 9.6222,17.872 -4.6237,2.1246 8.56,3.2181 3.2178,10.717 -1.7807,3.2181 2.8429,4.999 h -9.2786 c -1.7852,0 -4.2978,-2.504 -7.1542,-3.2181 -2.8564,-0.7141 -4.28,5.7177 -4.28,5.7177 l -7.1229,2.1246 -4.6549,-2.4995 -7.4978,2.1558 -0.34365,-7.1549 -3.2178,-1.0623 -4.9986,1.7809 -6.0608,-3.2181 1.7807,-4.6241 -5.3734,-5.7177 -1.0622,-6.0613 -4.28,-3.593 -6.7793,2.1558 v 5.3427 l -1.4371,4.999 -2.4993,-5.3427 -7.8415,3.5618 v 4.6554 l -4.9986,1.7809 -0.3749,-3.2181 -3.2178,-4.6554 -6.4044,-0.34367 v 6.0613 l -5.3734,2.1558 -2.1244,-2.4995 v 5.3427 l -1.4371,6.0926 2.4993,6.78 -5.7171,-0.37493 -1.7807,-2.4995 -1.4371,-3.5618 h -2.4993 v -3.2181 l 1.0622,-3.9367 0.37489,-3.5618 -4.9986,-1.7809 -2.1556,-3.5618 -4.9986,3.5618 v -2.1558 l -6.0607,-2.1246 4.6549,-3.9368 -2.4993,-2.4995 -1.812,-5.7177 -4.9986,-1.7809 -3.9051,1.4372 -7.1542,-0.71861 -3.9364,1.4372 -1.7807,2.4995 h -5.7171 l -2.1244,3.5618 -6.4356,0.34368 -2.1244,3.9368 h -2.8742 l 1.0622,6.4363 -4.6237,-1.0623 v 6.0613 l -3.9364,7.4986 1.2496,5.8739 -3.7489,0.18746 -6.7793,-13.216 c 0,0 0.18743,13.234 0.18745,14.841 2e-5,1.607 -15.527,3.0307 -15.527,3.0307 l -584.96,14.216 -0.71854,-4.4991 -0.24993,-15.903 -12.371,-16.403 8.5913,16.153 0.49985,12.873 -7.5916,-4.8116 -12.871,-0.74985 11.372,3.0307 10.091,8.0922 0.31241,2.2808 -18.994,0.46866 -3.0304,-7.2174 -14.152,0.0937 -1.2496,8.7796 -8.5913,-6.2176 -3.2803,6.28 -48.33,1.2498 v 8.2484 l 99.034,-1.5934 0.81226,5.8114 4.7799,10.342 -1.2496,4.5304 5.061,12.654 -4.3112,19.934 1.5308,8.3422 -7.3416,-2.4058 -12.746,6.3113 -6.3107,-0.87483 3.9364,3.0307 -1.7807,19.934 4.5299,-17.684 7.0917,9.8419 -5.311,-11.841 12.121,-5.8114 7.8102,4.5304 -4.5299,45.71 -11.122,-4.2804 11.622,8.5609 0.49986,6.5612 -9.591,-5.5302 -29.523,2.2496 -7.3416,8.0922 10.872,-7.8422 24.493,-0.24995 11.091,7.0924 2.2806,9.092 0.28117,0.21871 -4.0613,-2.4995 -4.3112,4.5304 -7.8102,-1.2498 -3.7802,13.872 -4.0613,-13.122 -15.121,-2.0309 -3.0304,11.123 -12.309,-6.4988 v -0.0312 l -0.62482,-3.4056 -3.3115,-3.4681 -3.1241,1.4372 c 0,0 -3.2937,4.9053 -3.5615,5.5302 -0.2678,0.6249 3.5615,2.687 3.5615,2.687 l 1.0934,3.9992 -5.4672,-1.6872 -0.62482,-3.7493 h -4.28 c -0.53557,0 0.28117,3.9368 0.28117,3.9368 l -5.9045,-2.5933 1.0934,-2.4058 -4.4675,-0.56238 -1.2496,0.37492 -1.3434,-3.2181 -4.8111,2.312 -0.99971,4.6554 -2.593,-0.81234 1.3434,-4.7178 -2.4056,-0.18748 -0.28117,-4.8116 -2.8429,0.24995 c 0,0 0.18745,2.4281 0.18745,2.8744 0,0.4463 -2.3431,0.24994 -2.3431,0.24996 l -0.43738,2.4995 4.28,2.1558 v 5.6239 l 4.0301,1.0623 -2.2494,2.687 -2.5618,-0.28119 -1.1872,-3.3744 -2.2181,0.53115 -0.5311,-2.1558 -1.8745,0.53116 -0.62481,-3.3744 2.4993,-0.37493 -1.0622,-2.7495 h -3.0616 l 1.0934,-2.3121 -2.7804,-1.2498 -0.24992,2.0309 -1.6245,0.81235 -0.24993,3.5618 1.3121,-0.24994 1.2496,1.0623 -0.87475,1.9684 0.96847,1.7496 -3.374,-2.9057 v 186.93 H 1023.8772 v -477.22 l -1.3434,0.9998 -5.061,-6.5612 v -13.122 z m -453.9,157.22 -0.71854,8.7483 -7.1229,4.999 1.4058,24.995 75.384,-2.2808 45.049,1.3747 36.24,6.9987 18.62,19.496 7.1229,20.402 -21.494,3.968 -8.7787,0.65612 -0.6873,-9.092 -4.0926,-3.6556 -3.0304,7.1549 -2.8117,7.7173 -3.7802,-4.5929 -2.6242,-25.433 -0.5311,25.245 -2.9991,4.8428 -4.5612,-4.5616 3.7177,-4.5304 -5.9983,-7.561 -3.499,3.9367 -4.3425,5.6239 -8.8099,-0.84359 5.2172,-3.7493 4.1863,-9.4045 -6.3419,-2.6557 -4.28,7.811 -6.1857,-20.215 -6.0607,-3.3744 0.62482,16.591 -2.9366,6.7487 -1.4058,9.2482 -9.5285,-7.9985 2.2806,7.5923 -4.5612,-0.24996 2.0307,7.7173 -9.3098,-1.9059 -3.3428,-6.405 -1.7182,-7.686 -8.1851,-1.1248 -8.3413,-4.093 2.3431,4.7803 8.1226,4.0305 1.031,12.779 -6.1232,2.9369 -8.3413,-10.717 4.8111,-3.2806 -6.3732,-4.7178 -0.28117,-7.2174 -3.4677,6.78 1.2496,5.3115 -3.9051,-3.1244 -1.6558,-9.1232 -4.2488,3.0307 0.59358,5.374 4.7174,2.9994 -3.7802,4.093 4.7486,6.7175 3.7802,7.0299 -5.2485,1.7497 -0.99971,-5.2802 -5.2797,-6.5925 -5.0923,4.9366 0.71854,-8.0297 -2.9991,-15.809 -0.71854,11.654 -5.8108,-10.311 -0.28117,10.654 3.4053,2.7807 -3.6552,6.3738 -7.8102,-6.1551 2.0619,10.217 5.311,1.7809 -1.2496,7.3736 -7.0917,-8.4046 -3.5615,5.7489 -5.061,2.7807 -2.7804,-2.0309 -6.0607,3.2806 -8.5913,5.6239 -9.7159,-5.499 -0.37489,5.7177 -4.9361,-3.968 -3.9988,7.4048 -11.715,-5.0615 -14.933,9.2482 1.4683,-11.654 -10.528,2.4683 -11.622,-6.9049 -22.493,12.966 -8.0914,-4.0305 -1.7495,4.5616 -3.8114,-5.0615 -7.0604,2.7807 h -3.0304 l 0.24993,-3.5306 -18.182,1.9996 3.2803,-7.0612 -14.621,-9.5919 -0.24993,6.8112 3.5302,4.8116 -6.3107,4.5304 4.7799,1.031 -0.24993,9.0608 -4.7799,1.7809 1.2496,6.0613 -8.3413,-6.8112 -7.3104,4.5304 -1.2496,-6.3113 2.4993,-6.0614 h -5.7796 l 0.99971,-4.5304 6.0608,1.2498 -4.3112,-6.5612 1.031,-7.3111 -8.8412,3.0307 2.0307,7.0611 -5.061,5.5614 -2.5305,-3.7805 3.7802,-3.2806 -12.621,-3.3119 -6.3107,12.904 5.5609,8.8108 -15.652,11.623 -7.3104,-5.3115 -2.2806,4.8116 -11.622,2.0309 c 0,0 -3.0202,-7.8372 -4.0301,-8.3422 -1.0099,-0.505 -2.0307,8.0922 -2.0307,8.0922 l -9.8409,0.99981 1.5308,5.8114 -3.5615,-0.24996 v -6.5612 l -6.5606,-4.5616 -5.5296,-10.842 -1.031,9.5919 -3.2803,6.8112 1.2809,5.0615 -7.5916,-1.281 -5.5609,3.2806 v -4.2804 l -5.7796,-1.531 0.74978,-9.5919 -9.0911,0.24995 -1.5308,5.0615 -4.28,3.5306 c 0,0 -4.5465,3.8845 -5.6234,5.2802 -0.2291,-1.3947 -2.2181,-5.0303 -2.2181,-5.0303 l -3.5302,-0.99981 -0.74978,-6.0613 -9.591,-5.5614 -4.28,4.5616 0.99971,9.5919 -0.74978,7.811 -3.0304,-7.811 -14.652,-6.5612 -2.7804,7.3111 -5.8108,2.2808 -4.28,-2.7807 -1.7807,6.3113 -9.591,1.7497 -0.74978,-4.5304 -11.372,0.4999 -3.5302,-5.0615 -3.2803,1.031 1.2809,5.5614 -4.8111,-3.5618 -4.8111,-13.622 -0.24993,13.372 -4.7799,-4.5304 -3.0304,7.0612 -5.5609,-4.7803 -9.591,-2.0309 -1.5308,3.5306 c 0,0 2.8066,7.3297 3.3115,8.5921 0.5049,1.2624 -11.872,-10.873 -11.872,-10.873 l -4.0613,5.3115 0.5311,7.3111 -9.9659,-6.1551 -2.1556,-18.84 -1.2809,-5.0303 2.0307,-19.965 12.121,2.7807 2.5305,5.8114 -2.0307,3.2806 -0.99971,6.5612 4.7799,-6.8112 7.0604,6.0613 -9.8409,-17.184 -13.371,-4.2804 1.4996,-22.214 3.5615,-4.8116 v -4.7803 l 4.7799,-7.5923 -7.5603,6.3113 0.24993,5.8114 -2.2806,0.49991 -2.2806,-10.842 3.5302,-20.184 9.0911,-12.373 0.5311,-8.5921 7.3104,-6.5612 13.121,-1.281 -14.121,-0.99981 -8.8412,6.8112 -4.0613,-4.7803 3.3115,12.873 -6.8418,10.342 -3.5302,-8.0922 1.031,-3.5306 6.3107,-3.2806 -7.0917,0.4999 -4.0301,-8.5608 -0.93723,-5.8426 461.21,-7.3736 z M 246.89,573.55 c 0.0481,0.31734 0.002,0.4999 -0.18745,0.4999 -0.17586,0 -0.0341,-0.20902 0.18745,-0.4999 z" />
  <path
     style="fill-rule:evenodd"
     inkscape:connector-curvature="0"
     id="path58"
     d="m 77.28,293.96 c 0,1e-5 -1.2317,4.0938 0.375,4.0938 1.6067,0 3.5625,-1.25 3.5625,-1.25 v -2.6562 L 77.28,293.9601 Z m 6.9688,5.1562 c -0.06734,-0.0144 -0.13171,0.009 -0.1875,0.0312 -0.8926,0.35708 -2.8438,2.8438 -2.8438,2.8438 l -2.1562,-1.4375 -1.7812,3.2188 c 0,-10e-6 -2.5,0.88372 -2.5,-0.1875 0,-1.07122 0.71408,-2.6562 0,-2.6562 -0.71408,0 -3.2188,1.4062 -3.2188,1.4062 0,0 -2.3164,6.6294 -0.53125,6.0938 1.78515,-0.5356 3.4062,-1.0938 3.4062,-1.0938 l -0.625,4.25 2.9375,0.40625 0.71875,-3.2188 -2.1562,-0.71875 1.4375,-2.6562 h 4.8125 v -2.1562 h 2.5 c 0,-1e-5 -1.7672,3.9419 0.375,3.4062 2.1422,-0.5357 3.0312,-3.2188 3.0312,-3.2188 0,0 -2.2087,-4.0967 -3.2188,-4.3125 z m -10.438,12.469 -0.8125,-0.125 0.71875,0.875 z m 14.906,-2.4375 -7.8438,0.34375 -1.25,3.4062 -6.25,2.8438 11.062,6.25 2.6562,-7.1562 -4.8125,1.8125 c 0,-10e-6 -0.87033,-4.125 -0.15625,-4.125 0.71408,0 9.2812,1.625 9.2812,1.625 l -2.6875,-5 z m -49.469,15.875 -7.6562,6.25 2.3125,0.34375 0.1875,5.1875 c 1.6067,0.35708 5.3438,0.1875 5.3438,0.1875 v -4.2812 c 0,1e-5 -2.1293,-0.54482 -1.5938,-1.4375 0.5355,-0.89268 2.125,-2.6875 2.125,-2.6875 l -0.71875,-3.5625 z m 7,4.4062 c -0.40795,0.0314 -0.75,0.19204 -0.75,0.59375 0,1.0712 -0.53125,6.4329 -0.53125,5.7188 0.71408,-0.17855 2.875,-2.5 2.875,-2.5 v -3.5625 c 0,0 -0.91384,-0.30231 -1.5938,-0.25 z m 34,0.6875 c -1.6513,0 -3.3125,0.0804 -3.3125,0.4375 v 6.7812 h -0.90625 l 2.5,1.4375 -0.15625,3.2188 6.7812,-3.75 -2.875,-1.9688 1.7812,-2.3125 -0.53125,-3.75 c 0,10e-6 -1.6299,-0.0937 -3.2812,-0.0937 z m -41.344,8.6562 -0.53125,4.4688 0.71875,-0.1875 c 1.4282,10e-6 3.2188,-0.71875 3.2188,-0.71875 l -0.375,-3.5625 h -3.0312 z m 50.344,1.7812 -2.3125,0.90625 v 2.125 l -3.5938,-0.53125 0.5,3.6875 c 2.2106,-0.24897 5.4062,-1 5.4062,-1 v -5.1875 z m -5.4062,6.1875 c -0.44569,0.0502 -0.85801,0.0625 -1.1875,0.0625 l 1.25,0.34375 z m 14.875,-6.1875 -3.4062,2.3125 -3.0312,7.1562 c 0.8926,0.53562 4.8125,-3.9375 4.8125,-3.9375 l 3.5938,0.375 -1.9688,-5.9062 z m -46.406,2.1562 -2.875,0.71875 -0.1875,4.625 c 0.8926,0.17853 4.2812,-0.34375 4.2812,-0.34375 l -1.2188,-5 z m -9.6562,5.1562 -3.5625,4.125 4.625,0.15625 0.375,-3.375 z m 5.1875,3.6875 c -0.23796,0.64728 -4.518,3.4688 -5.1875,3.4688 -0.71407,0 0.90625,2.3125 0.90625,2.3125 l 4.0938,-1.5938 0.1875,-4.1875 z m 58.531,0.0625 -3.75,4.2812 -0.34375,-3.5625 -3.2188,1.25 -0.53125,1.9688 -2.5,-0.71875 -0.53125,-1.7812 -4.6562,2.3125 -7.3125,1.4375 0.53125,4.4688 3.0312,-0.90625 1.4375,-2.6562 h 2.1562 c 0,-1e-5 -1.4461,6.5938 -0.375,6.5938 1.0711,0 3.75,-0.90625 3.75,-0.90625 0,0 -1.0488,-4.6383 -0.15625,-4.2812 0.89255,0.3571 4.625,0.90625 4.625,0.90625 l 9.4688,-6.25 -1.625,-2.1562 z m -49.438,6.625 -1.4375,2.6562 c 0,0 -6.0539,-0.34374 -7.125,-0.34375 -1.0711,-1e-5 -1.25,6.0625 -1.25,6.0625 l 1.9688,4.6562 2.8438,-5 4.0938,-2.875 1.625,4.125 -3.0312,0.53125 v 2.8438 l 3.75,2.5 2.6562,-2.3125 3.75,3.9375 -6.5938,2.3125 0.1875,2.8438 9.2812,-4.2812 4.4688,1.4375 c 0.53556,0.17854 1.759,-2.5046 1.9375,-3.2188 0.1785,-0.7142 -1.2324,-0.53124 -2.125,-0.53125 -0.8926,-10e-6 -2.3125,-3.2188 -2.3125,-3.2188 0,0 4.6297,-1.6117 5.3438,-1.9688 0.7141,-0.3571 1.0625,-3.75 1.0625,-3.75 l -7.3125,0.1875 c 0,0 -0.35274,5.0136 -0.53125,5.9062 -0.17851,0.8926 -2.3125,-1.4375 -2.3125,-1.4375 l -2.1562,-3.9375 0.375,-4.4688 -7.1562,-2.6562 z m 27.844,9.4688 -5,3.7188 2.1562,0.90625 4.0938,-1.9688 -1.25,-2.6562 z m -0.53125,9.2812 c 0,0 -3.7593,1.4152 -5.1875,1.5938 -1.4282,0.1786 -2.125,2.3125 -2.125,2.3125 l 1.5938,1.625 -0.34375,4.2812 3.375,0.53125 1.0938,-5.5312 2.6562,0.71875 -0.15625,-2.6875 -0.90625,-2.8438 z m 9.0938,59.094 -2.8438,0.53125 0.71875,3.9062 h -4.6562 l -0.15625,-3.9062 -3.75,0.1875 0.53125,2.4688 -3.4062,-0.53125 3.4062,3.4062 -1.4375,3.2188 -4.4688,-2.5 -1.25,3.5625 3.75,2.1562 -4.2812,2.6562 3.9375,7.5 1.9688,-2.125 2.8438,0.15625 0.53125,1.625 c 0,0 4.6609,1.0625 5.375,1.0625 0.7141,0 0,2.1563 0,2.1562 l -5,-1.4375 -2.3438,1.0625 1.7812,3.9375 3.5938,-1.0625 h 4.625 l -0.53125,3.75 -0.84375,4.1875 3.0312,1.25 -0.25,-4.2812 4.2812,-1.7812 4.8125,1.0312 1.4688,-4.3438 -6.25,0.1875 -0.34375,-4.125 c 0,0 -0.90661,0.375 -2.1562,0.375 -1.24959,0 -0.34375,-2.1562 -0.34375,-2.1562 h 1.5938 l 0.375,-1.9688 1.7812,-0.15625 2.6562,0.875 0.71875,-4.625 c 0,0 -2.8664,-0.38398 -3.9375,-0.5625 -1.0711,-0.17852 2.6875,-2.8437 2.6875,-2.8438 l -1.9688,-3.2188 -5.3438,-0.53125 4.8125,-2.3125 -1.25,-3.9375 -4.2812,1.7812 -0.1875,-4.625 z m 37.5,1.4062 -3.375,0.90625 -1.0938,2.6875 h -4.4688 l -1.25,-2.875 h -2.6562 v 4.4688 l -4.8125,1.4375 -1.9688,2.125 2.5,3.75 -0.71875,2.875 v 2.6562 l 2.6562,-1.0625 4.6562,-3.9375 2.6875,1.4375 -0.71875,1.625 3.5625,-3.2188 2.1562,0.15625 v -3.75 h 5.3438 l -1.7812,5.5625 -3.2188,0.34375 c 0,3e-5 -2.6875,0.0136 -2.6875,0.90625 0,0.89268 -0.15625,2.5 -0.15625,2.5 l 3.9062,0.15625 4.6562,-1.7812 0.875,-3.9375 c 0,-3e-5 3.0449,-1.25 3.9375,-1.25 h 4.125 l -1.0938,3.4062 c 0,3e-5 -3.3973,-0.16496 -3.2188,0.90625 0.1785,1.07121 0.005,4.2812 0.71875,4.2812 0.71408,0 3.2188,-1.0938 3.2188,-1.0938 v -2.125 l 2.8438,-2.5 v -4.6562 l 3.0625,-0.53125 -0.1875,3.75 3.5625,-1.0625 -0.71875,-1.9688 3.9375,-2.1562 -0.90625,-3.9062 -0.6875,-2.875 h -3.0625 l -1.4062,2.5 -1.7812,-0.34375 c 0,2e-5 0.17385,-2.5 -0.71875,-2.5 -0.8926,0 -4.6562,-0.72747 -4.6562,0.34375 0,1.07122 0.53125,4.2812 0.53125,4.2812 l 2.3438,3.75 -4.6562,-0.875 -0.71875,-1.9688 -4.0938,1.0625 -0.53125,-1.7812 2.5,-3.75 -1.25,-1.9688 h -5.1875 z m 7.9375,23.438 -5.3125,1.6562 -1.5,5.4375 2.5,1.625 -0.75,3.5312 -4.5312,0.5 0.375,3.0312 -2.0312,0.25 0.125,4.0625 3.0312,2.7812 c 0,1e-5 -3.1538,2.63 -3.4062,2.125 -0.2524,-0.505 -2.9062,-3.9013 -2.9062,-4.4062 0,-0.5049 -0.875,-2.4062 -0.875,-2.4062 l 1.9062,-2.6562 1.125,-3.0312 -3.0312,-0.75 -2.0312,-1.5 1.2812,-3.8125 2.5312,-2.375 1.125,0.625 c 0,1e-5 -3.1534,2.4075 -0.25,2.2812 2.9034,-0.1263 3.9062,-0.78125 3.9062,-0.78125 l -0.125,-5.8125 -3.0312,0.28125 -0.75,1.375 -3.4062,-1.7812 -1.5312,3.2812 -4.2812,1.0312 0.25,6.4375 -1.9062,2 0.53125,2.5312 -0.90625,1.4062 0.65625,2.375 c 0,0 -1.9087,-0.22747 -1.6562,0.65625 0.2525,0.88372 0.25,2.7812 0.25,2.7812 l 2.2812,-0.15625 0.125,2.9062 3.5312,-0.5 1.25,3.0312 -2.125,3.0312 1.625,-1.125 c 0,2e-5 1.4013,3.0325 1.9062,2.9062 0.5049,-0.1263 3.0312,0.50747 3.0312,-0.25 v -3.0312 l 4.5312,-1.0312 -0.125,-3.1562 1.7812,0.375 0.375,2.7812 2.6562,-0.625 2.75,2.0312 2.2812,-2.2812 c 0,2e-5 -2.5312,-0.87002 -2.5312,-1.375 v -4.1875 h 2.7812 c 0,-1e-5 4.3051,-6.8125 5.0625,-6.8125 0.7574,0 3.9062,-0.75 3.9062,-0.75 v -3.0312 h -3.5312 l -2.5312,2.6562 -4.5312,6.6875 -3.6562,-1.4062 0.25,-4.1562 4.0312,-0.625 2.9062,-3.1562 -3.0312,-1.5 -1.5312,-1.5312 0.125,-1.5 8.7188,-0.28125 -2.4062,-4.2812 -2.625,1.9062 -1.4062,-3.1562 -1.25,-1.1562 z m -41.781,16.031 c 0,-10e-6 -2.0399,2.6538 -1.1562,2.9062 0.8837,0.2524 3.0312,3.6562 3.0312,3.6562 l -0.875,1.4062 c 0,-10e-6 -1.7512,0.37998 -1.625,-0.125 0.1262,-0.50498 0.75,-2.9062 0.75,-2.9062 l -2.5312,-0.375 -1.9062,2.9062 -0.75,1.875 2.7812,0.125 0.25,2.9062 -2.2812,-0.125 -3.0312,-0.75 0.65625,2.1562 -1.0312,2 -3.1562,2.7812 0.53125,-0.125 2.25,0.75 1.7812,-2.75 2.7812,-1.2812 2.5,1 0.25,-2 2.7812,0.25 0.78125,2.0312 2.375,-0.90625 -0.5,-4.2812 2.2812,-1.9062 0.375,-4.5312 -2.7812,-0.875 -1,-3.8125 h -3.5312 z m 51.75,8.4688 -2.2812,2.0312 3.0312,3.7812 -0.5,5.3125 -2.0312,-2.7812 -1.25,-2.5312 -3.7812,1.75 3.0312,9.625 4.0312,-1.0312 v -3.5312 l 2.5312,-0.5 v -5.5625 l -2.7812,-6.5625 z m -14,5.3125 c 0,0 -4.9375,-0.005 -4.9375,0.5 0,0.50498 -0.625,4.6562 -0.625,4.6562 h 2 l 0.40625,-3.0312 3.1562,0.65625 1.875,3.5312 2.2812,-0.90625 -0.375,-2.375 -2.4062,-1.7812 -1.375,-1.25 z m -58,6.4062 -7.5,0.34375 v 2.3125 l -1.7812,0.71875 0.90625,-3.2188 h -3.75 l -0.375,5.375 -1.7812,1.9688 0.71875,3.1875 4.0938,-2.6562 2.6875,2.6562 c 0,0 -1.7902,1.2546 -1.9688,1.9688 -0.1786,0.7142 1.0625,2.1562 1.0625,2.1562 l 2.5,0.875 -2.3125,1.625 v 3.2188 l 5.7188,1.7812 -0.53125,1.9688 -5,-1.9688 c 0,0 -0.37069,1.2503 -0.90625,2.5 -0.53556,1.2497 2.5,0.34373 2.5,0.34375 l 1.0938,3.0312 -3.0625,2.1562 1.0938,2.3125 4.2812,-1.9688 1.4375,3.75 3.375,0.1875 v 2.8438 l -3.5625,0.1875 -1.7812,-4.0938 -3.4062,1.0625 -0.71875,-1.9688 H 67.467 l -0.53125,2.3125 -1.7812,1.25 -1.7812,-3.1875 h 3.0312 l -0.71875,-3.2188 -3.5625,1.25 0.875,-2.6875 -5.875,-0.1875 0.71875,-4.8125 -3.9375,0.34375 1.25,4.6562 h -2.8438 v 3.9375 l 2.6562,0.15625 1.25,2.875 2.5,0.34375 0.1875,1.7812 3.5625,-0.875 0.53125,2.3125 3.4062,1.7812 1.7812,-1.4375 3.9375,0.1875 -0.375,4.2812 2.3125,1.0938 1.625,-4.4688 -0.1875,9.2812 3.0312,1.25 1.0938,-4.2812 4.0938,0.71875 1.0625,4.4375 2.875,-3.0312 4.2812,2.875 0.15625,-1.9688 -2.5,-3.2188 -1.7812,-2.3125 6.25,-0.90625 0.90625,-3.9375 c 0,0 -5.3484,-1.759 -6.0625,-1.9375 -0.7141,-0.1785 -3.5938,-5.5312 -3.5938,-5.5312 l 3.0312,0.53125 3.9375,3.9062 2.1562,-1.25 -6.0938,-9.0938 -3.375,-0.71875 0.53125,-3.5625 1.7812,-0.1875 0.90625,2.1562 2.5,2.125 3.75,-4.625 -2.875,-2.1562 -6.9688,-3.375 -3.9062,1.4062 -1.4375,-3.2188 2.3125,-0.15625 0.5625,-2.875 -2.875,-0.15625 -0.34375,-4.4688 -2.1562,-0.71875 -1.0625,1.9688 -1.9688,1.4375 v -2.6875 l -3.0312,0.71875 v -1.9688 l 1.4375,-1.4375 1.5938,0.90625 h 2.6875 l 0.34375,-4.2812 z m 58.375,1.6562 -5.9375,0.25 -2.4062,2.5312 -2.0312,-2 -3.2812,0.375 v 3.4062 l 1.4062,2.125 -4.3125,3.9375 -3.5312,-3.5312 -1.875,0.375 -0.875,3.6562 c 0,1e-5 3.4001,2.9038 4.0312,3.1562 0.6311,0.2524 4.4062,0.375 4.4062,0.375 l 2.7812,-2.1562 c 0,-2e-5 -1.5049,-1.3713 -1,-1.75 0.5049,-0.3787 5.0312,-2.2812 5.0312,-2.2812 l 2.0312,-0.25 c 0,10e-6 -1.0123,-1.9075 0.25,-1.7812 1.2623,0.1263 4.9375,-0.125 4.9375,-0.125 l -4.3125,-3.2812 1.1562,-1.625 c 0,-10e-6 4.0312,2.135 4.0312,1.125 0,-1.01 -0.5,-2.5312 -0.5,-2.5312 z m 9.4688,8.0938 -1.5312,4.2812 -5.1562,-1.875 -0.40625,3.9062 4.5625,0.125 -0.75,3.5312 3.0312,0.625 1.125,-3.1562 3.1562,1.4062 1.25,-1.9062 1.1562,-3.1562 c 0,0 -3.6789,10e-4 -4.5625,-0.125 -0.8836,-0.12625 0.5,-2.4063 0.5,-2.4062 l -2.375,-1.25 z m 22.469,0.125 0.125,3.9062 -3.2812,1.4062 v 4.0312 c 0,-3e-5 -2.5312,2.505 -2.5312,2 0,-0.505 0.625,-6.4375 0.625,-6.4375 l -3.6562,0.78125 0.125,4.5312 1,2.2812 -2,1 2.125,4.3125 1.2812,2.375 -2.0312,2.9062 -0.875,-1.875 -1.4062,-2.1562 -3.2812,1.5 2.9062,2.2812 v 2.2812 l -1.375,1.375 -2.7812,-1.125 -1.125,2.6562 h -3.0312 l -0.375,1.375 -2.2812,0.75 -2.9062,-0.625 1.75,-3.6562 3.8125,-1.25 -0.53125,-3.4062 -4.2812,0.625 1,-3.6562 -0.5,-3.2812 -3.7812,-0.53125 -1,-2.75 c 0,-2e-5 -3.1562,-0.13371 -3.1562,0.75 v 3.1562 l -5.1875,1.375 1.2812,3.6562 5.4062,1.0312 1.9062,-2.6562 2.2812,3.5312 -1.7812,2.7812 1.5,1.25 -0.875,2.4062 -0.625,3.5312 0.125,4.4375 2.0312,-0.78125 0.625,-2.6562 3.0312,-0.5 2.5312,0.5 -0.90625,3.5625 h 3.1562 v -2.5312 l 1.4062,-2.6562 3.4062,1 c 0,2e-5 1.1201,-1.375 1.625,-1.375 0.5049,0 3.0312,-2.0312 3.0312,-2.0312 l 2.4062,0.5 1.375,-1.375 c 0,-3e-5 -3.266,-1.4 -1.625,-2.0312 1.641,-0.6312 5.3125,-2.375 5.3125,-2.375 l -1.5312,-3.1562 -0.875,-3.1562 -3.1562,-3.3125 2.9062,-0.75 2.125,-2 c 0,0 -1.2574,-1.7788 -0.5,-2.0312 0.7574,-0.2524 2.7825,0.38121 2.6562,-0.25 -0.1263,-0.63121 -0.25,-3.7812 -0.25,-3.7812 l 1.7812,-1.1562 1.875,-2.6562 -5.0312,-1.875 z m -51.656,7.9375 -2.125,1.5312 1.75,2.9062 -2.25,2.6562 0.625,3.0312 -1,2.625 -0.53125,6.1875 -0.625,2.5312 5.5625,2.0312 1.25,2.5312 -1,1.25 -2.4062,-1.7812 -3.1562,0.65625 0.125,3.5312 5.1875,0.625 1.9062,-0.125 1.625,-5.0625 h 4.0312 l 3.5312,-2.7812 4.1875,-0.125 v -1.875 l -3.5312,-0.125 0.125,-1.5312 2.625,-0.125 -0.25,-3.9062 -2.125,-0.125 -0.625,2.9062 -1.5312,-0.5 -0.25,-2.4062 -3.1562,-0.125 v 2.1562 l -6.8125,3.5312 -1.4062,-1.0312 3.8125,-3.6562 2.9062,-2.5312 3.4062,-1.375 0.875,-3.6562 -4.0312,-3.5312 -4.0625,2.7812 -1.25,-2.2812 2.7812,-1 1.125,-3.0312 -3.1562,1.375 -2.1562,-2.1562 z m 19.844,18.812 c -0.0673,0.0207 -0.10922,0.0619 -0.125,0.125 -0.12623,0.50496 -0.65625,4.6875 -0.65625,4.6875 l 0.28125,-0.875 2.875,-0.53125 -0.375,-2.75 c 0,1e-5 -1.5288,-0.80124 -2,-0.65625 z m -83.312,1.75 -0.34375,3.2188 -3.2188,0.34375 -1.25,2.1562 2.3125,1.0625 0.1875,3.4062 2.3125,1.0625 0.53125,-3.0312 -2.3125,-2.5 3.0312,-1.625 1.0625,1.625 1.0938,3.375 1.9375,1.25 -1.25,3.75 3.5938,2.3438 2.8438,1.7812 -0.34375,3.1875 1.0625,0.1875 0.90625,-1.5938 4.0938,-1.0625 -1.7812,-2.5 3.2188,-2.1562 0.15625,-2.8438 -5.5312,3.0312 -0.71875,-1.7812 -3.1875,0.6875 v -4.2812 l 1.5938,-0.34375 0.1875,-5.375 -3.4062,-1.0625 -0.34375,1.9688 -2.5,0.71875 0.34375,-3.2188 -4.2812,-1.7812 z m 62.719,12.781 c 0,-10e-6 0.52632,5.5637 1.0312,5.4375 0.50488,-0.1262 3.0312,-0.40004 3.0312,-1.0312 0,-0.63116 -0.65625,-3.7812 -0.65625,-3.7812 l -3.4062,-0.625 z m -71.281,2.0312 -3.0312,0.1875 1.0625,4.625 c 0,0 -3.2234,-1.5938 -3.9375,-1.5938 -0.7141,0 -0.875,3.375 -0.875,3.375 l 4.4688,1.4375 -0.5625,1.7812 -4.8125,-1.25 -1.25,3.0312 4.8125,2.875 4.3125,-0.1875 -1.25,-5.1875 3.75,-0.15625 1.4062,2.5 3.2188,-2.875 1.9688,1.25 -1.7812,3.9375 2.125,1.9688 4.2812,-5 1.625,-3.75 0.71875,-2.6875 -2.875,-0.15625 v 2.4688 c 0,0 -1.5988,1.25 -3.5625,1.25 -1.9637,0 0,-2.8438 0,-2.8438 l -3.5625,-0.1875 -2.1562,-3.9062 -2.8438,3.9062 -1.25,-4.8125 z m 66.219,2.5312 c 0.45765,0.30698 0.78125,4.4329 0.78125,4.9062 0,0.50498 2.1562,-0.12499 2.1562,-0.125 l 0.625,-3.7812 -3.5625,-1 z m -10.719,8.1875 -3.7188,1.0625 v 3.0312 l -1.0938,0.53125 -0.53125,-3.0312 c 0,0 -3.0359,0.18748 -3.75,0.1875 -0.7141,2e-5 0.375,2.8438 0.375,2.8438 l -2.6875,0.5625 0.53125,-2.1562 h -3.75 l 0.1875,1.9688 -1.4375,0.34375 -0.875,2.875 3.7188,2.8438 -0.6875,3.75 1.7812,2.5 1.25,-7.5 -2.5,-0.53125 -0.1875,-2.1562 3.2188,1.0938 1.4375,3.2188 4.2812,-0.71875 -0.1875,-5.1875 3.2188,1.5938 3.0312,-0.53125 -1.625,-6.5938 z m -31.719,1.9688 c -0.66749,0.38511 -1.3014,4.6743 -1.4688,5.3438 -0.17853,0.71416 4.625,-3.2188 4.625,-3.2188 0.35704,0.35707 -2.3172,-1.9465 -3.0312,-2.125 -0.04463,-0.0112 -0.0805,-0.0257 -0.125,0 z m -4.875,4.2812 -3.1875,1.5938 -3.75,2.875 0.53125,3.5625 4.2812,-0.53125 3.5625,-5 -1.4375,-2.5 z" />
  <path
     style="fill:#ffffff;fill-opacity:0.6445498;stroke-width:1.78834116"
     d="m 183.48831,193.70968 a 25.546952,25.549504 0 0 0 -26.08054,25.75545 25.546952,25.549504 0 0 0 35.15016,23.87943 25.546952,25.549504 0 0 1 -23.55806,-25.65054 25.546952,25.549504 0 0 1 15.94531,-23.88301 25.546952,25.549504 0 0 0 -1.45687,-0.10301 z"
     id="path62"
     inkscape:connector-curvature="0" />
  <path
     inkscape:connector-curvature="0"
     style="fill:url(#i);fill-rule:evenodd"
     id="path70"
     d="m 556.44,454.29 -1.4282,25.352 7.1408,4.999 1.0711,16.425 16.959,0.5356 1.4282,-15.89 6.6052,-2.8566 7.8549,2.1424 3.9274,-4.642 4.2845,1.4283 -1.0711,4.999 4.9986,-4.2849 1.7852,4.642 -1.7852,5.7132 3.5704,2.8566 1.4282,-3.2137 2.8563,-0.35706 v 3.5708 l 3.9274,2.1424 1.7852,-6.0702 5.3556,1.7854 2.8563,-2.8566 c 0,0 -7.1408,-7.4986 -1.7852,-7.8556 5.3556,-0.357 8.926,0.71416 10.711,0.71416 1.785,0 12.139,0.71415 12.139,0.71415 l 58.197,4.642 6.1025,5.2184 2.4202,-7.8225 4.295,13.322 12.532,0.70866 9.6401,-33.208 -1.0711,-26.781 -11.068,-5.3561 -8.2119,1.4283 -2.8563,-4.642 -1.7852,5.3561 h -3.5704 l -1.7852,-3.5708 -2.1422,5.3561 -2.8563,3.5708 6.7838,1.7854 -3.9274,2.8566 -4.2845,-0.71416 v 6.7844 l -15.353,7.1415 -14.996,1.7854 -17.852,-6.4273 -102.83,-1.4283 z" />
  <path
     inkscape:connector-curvature="0"
     style="fill:url(#j);fill-rule:evenodd"
     id="path74"
     d="m 556.44,454.29 -1.4282,25.352 7.1408,4.999 1.0711,16.425 16.959,0.5356 1.4282,-15.89 6.6052,-2.8566 7.8549,2.1424 3.9274,-4.642 4.2845,1.4283 -1.0711,4.999 4.9986,-4.2849 1.7852,4.642 -1.7852,5.7132 3.5704,2.8566 1.4282,-3.2137 2.8563,-0.35706 v 3.5708 l 3.9274,2.1424 1.7852,-6.0702 5.3556,1.7854 2.8563,-2.8566 c 0,0 -7.1408,-7.4986 -1.7852,-7.8556 5.3556,-0.357 8.926,0.71416 10.711,0.71416 1.785,0 12.139,0.71415 12.139,0.71415 l 58.197,4.642 6.1025,5.2184 2.4202,-7.8225 4.295,13.322 12.532,0.70866 9.6401,-33.208 -1.0711,-26.781 -11.068,-5.3561 -8.2119,1.4283 -2.8563,-4.642 -1.7852,5.3561 h -3.5704 l -1.7852,-3.5708 -2.1422,5.3561 -2.8563,3.5708 6.7838,1.7854 -3.9274,2.8566 -4.2845,-0.71416 v 6.7844 l -15.353,7.1415 -14.996,1.7854 -17.852,-6.4273 -102.83,-1.4283 z" />
  <path
     inkscape:connector-curvature="0"
     style="fill:url(#k);fill-rule:evenodd"
     id="path82"
     d="m 0.17,436.66 0.0446,10.311 46.772,-0.0446 4.2398,7.5432 7.8549,-7.4986 1.4282,10.355 13.21,-1.0712 2.8563,-12.141 494.14,-7.4986 v -15.711 l -570.55,15.756 z" />
  <path
     sodipodi:type="star"
     style="opacity:1;fill:#ffffff;fill-opacity:0.6445498;stroke:none;stroke-width:3.77952766;stroke-miterlimit:4;stroke-dasharray:none;stroke-opacity:1"
     id="path876"
     sodipodi:sides="5"
     sodipodi:cx="422.44067"
     sodipodi:cy="277.83051"
     sodipodi:r1="3.621253"
     sodipodi:r2="1.8106265"
     sodipodi:arg1="0.90482709"
     sodipodi:arg2="1.5331456"
     inkscape:flatsided="false"
     inkscape:rounded="0"
     inkscape:randomized="0"
     d="m 424.67796,280.67796 -2.16913,-1.03811 -2.08489,1.19836 0.31701,-2.38377 -1.78397,-1.61253 2.36505,-0.43513 0.98233,-2.19496 1.14468,2.11484 2.39109,0.25597 -1.65761,1.74217 z"
     inkscape:transform-center-x="0.042122269"
     inkscape:transform-center-y="-0.30549316" />
  <path
     sodipodi:type="star"
     style="opacity:1;fill:#ffffff;fill-opacity:0.6445498;stroke:none;stroke-width:3.77952766;stroke-miterlimit:4;stroke-dasharray:none;stroke-opacity:1"
     id="path878"
     sodipodi:sides="5"
     sodipodi:cx="75.661018"
     sodipodi:cy="169.22034"
     sodipodi:r1="4.6021867"
     sodipodi:r2="2.3010933"
     sodipodi:arg1="0.78539816"
     sodipodi:arg2="1.4137167"
     inkscape:flatsided="false"
     inkscape:rounded="0"
     inkscape:randomized="0"
     d="m 78.915256,172.47457 -2.894267,-0.98147 -2.44932,1.82782 0.03906,-3.05591 -2.495237,-1.76461 2.918408,-0.90718 0.907178,-2.91841 1.764615,2.49524 3.055904,-0.0391 -1.827816,2.44932 z"
     inkscape:transform-center-x="0.22247388"
     inkscape:transform-center-y="-0.22247388" />
  <path
     sodipodi:type="star"
     style="opacity:1;fill:#ffffff;fill-opacity:0.6445498;stroke:none;stroke-width:3.77952766;stroke-miterlimit:4;stroke-dasharray:none;stroke-opacity:1"
     id="path880"
     sodipodi:sides="5"
     sodipodi:cx="170.03391"
     sodipodi:cy="327.05084"
     sodipodi:r1="3.3543911"
     sodipodi:r2="1.6771955"
     sodipodi:arg1="0.24497866"
     sodipodi:arg2="0.87329719"
     inkscape:flatsided="false"
     inkscape:rounded="0"
     inkscape:randomized="0"
     d="m 173.28814,327.8644 -2.17697,0.47193 -0.84539,2.06088 -1.12155,-1.92459 -2.22126,-0.16717 1.48382,-1.66139 -0.52742,-2.16419 2.0386,0.89779 1.89529,-1.17038 -0.22389,2.21626 z"
     inkscape:transform-center-x="-0.071652924"
     inkscape:transform-center-y="0.25140366" />
  <path
     sodipodi:type="star"
     style="opacity:1;fill:#ffffff;fill-opacity:0.6445498;stroke:none;stroke-width:3.77952766;stroke-miterlimit:4;stroke-dasharray:none;stroke-opacity:1"
     id="path882"
     sodipodi:sides="6"
     sodipodi:cx="702.91528"
     sodipodi:cy="21.966097"
     sodipodi:r1="3.4516399"
     sodipodi:r2="1.7258199"
     sodipodi:arg1="0.78539816"
     sodipodi:arg2="1.3089969"
     inkscape:flatsided="false"
     inkscape:rounded="0"
     inkscape:randomized="0"
     d="m 705.35596,24.406775 -1.994,-0.773664 -1.34003,1.667014 -0.32699,-2.113689 -2.11368,-0.326989 1.66701,-1.340025 -0.77366,-1.994003 1.994,0.773664 1.34002,-1.667014 0.32699,2.113689 2.11369,0.326989 -1.66701,1.340025 z"
     inkscape:transform-center-x="0.16685541"
     inkscape:transform-center-y="-0.16685541" />
  <path
     sodipodi:type="star"
     style="opacity:1;fill:#ffffff;fill-opacity:0.6445498;stroke:none;stroke-width:3.77952766;stroke-miterlimit:4;stroke-dasharray:none;stroke-opacity:1"
     id="path886"
     sodipodi:sides="7"
     sodipodi:cx="781.01697"
     sodipodi:cy="197.69492"
     sodipodi:r1="6.1958833"
     sodipodi:r2="3.0979416"
     sodipodi:arg1="1.1659045"
     sodipodi:arg2="1.6147035"
     inkscape:flatsided="false"
     inkscape:rounded="0"
     inkscape:randomized="0"
     d="m 783.45765,203.38983 -2.57666,-2.59996 -2.79475,2.36397 0.42621,-3.63556 -3.59072,-0.71112 3.10814,-1.93351 -1.68281,-3.2507 3.44957,1.22451 1.49229,-3.34246 1.19341,3.46046 3.54367,-0.91727 -1.96142,3.0906 2.92659,2.19865 -3.63925,0.39346 z" />
  <path
     sodipodi:type="star"
     style="opacity:1;fill:#ffffff;fill-opacity:0.6445498;stroke:none;stroke-width:3.77952766;stroke-miterlimit:4;stroke-dasharray:none;stroke-opacity:1"
     id="path888"
     sodipodi:sides="7"
     sodipodi:cx="901.42371"
     sodipodi:cy="107.38983"
     sodipodi:r1="6.1958833"
     sodipodi:r2="3.0979416"
     sodipodi:arg1="1.1659045"
     sodipodi:arg2="1.6147035"
     inkscape:flatsided="false"
     inkscape:rounded="0"
     inkscape:randomized="0"
     d="m 903.86438,113.08475 -2.57665,-2.59996 -2.79475,2.36396 0.42621,-3.63556 -3.59072,-0.71111 3.10814,-1.93351 -1.68281,-3.25071 3.44957,1.22451 1.49229,-3.34245 1.19341,3.46045 3.54367,-0.91726 -1.96142,3.0906 2.92659,2.19864 -3.63925,0.39347 z"
     inkscape:transform-center-x="0.060515961"
     inkscape:transform-center-y="-0.24749829" />
  <path
     sodipodi:type="star"
     style="opacity:1;fill:#ffffff;fill-opacity:0.6445498;stroke:none;stroke-width:3.77952766;stroke-miterlimit:4;stroke-dasharray:none;stroke-opacity:1"
     id="path890"
     sodipodi:sides="7"
     sodipodi:cx="536.13562"
     sodipodi:cy="373.42374"
     sodipodi:r1="4.0677967"
     sodipodi:r2="2.0338984"
     sodipodi:arg1="2.4980915"
     sodipodi:arg2="2.9468905"
     inkscape:flatsided="false"
     inkscape:rounded="0"
     inkscape:randomized="0"
     d="m 532.88138,375.86441 1.25877,-2.04717 -1.94171,-1.41603 2.38537,-0.29225 -0.10354,-2.40097 1.71574,1.68275 1.81261,-1.57794 -0.24588,2.3906 2.36382,0.43332 -2.02235,1.29828 1.13503,2.11828 -2.27595,-0.77167 -0.94845,2.20813 -0.81572,-2.26054 z"
     inkscape:transform-center-x="-0.026877167"
     inkscape:transform-center-y="0.17512714" />
  <path
     sodipodi:type="star"
     style="opacity:1;fill:#ffffff;fill-opacity:0.6445498;stroke:none;stroke-width:3.77952766;stroke-miterlimit:4;stroke-dasharray:none;stroke-opacity:1"
     id="path892"
     sodipodi:sides="7"
     sodipodi:cx="353.89832"
     sodipodi:cy="35.796604"
     sodipodi:r1="3.6383479"
     sodipodi:r2="1.8191741"
     sodipodi:arg1="1.1071487"
     sodipodi:arg2="1.5559477"
     inkscape:flatsided="false"
     inkscape:rounded="0"
     inkscape:randomized="0"
     d="m 355.52543,39.050841 -1.6001,-1.435263 -1.55679,1.482142 0.12449,-2.145886 -2.12943,-0.293042 1.75534,-1.240614 -1.09857,-1.84756 2.06439,0.598867 0.75953,-2.010828 0.81891,1.987389 2.04569,-0.659901 -1.04322,1.879365 1.7914,1.187945 -2.11978,0.356142 z"
     inkscape:transform-center-x="-0.01202116"
     inkscape:transform-center-y="-0.16841523" />
  <path
     sodipodi:type="star"
     style="opacity:1;fill:#ffffff;fill-opacity:0.6445498;stroke:none;stroke-width:3.77952766;stroke-miterlimit:4;stroke-dasharray:none;stroke-opacity:1"
     id="path896"
     sodipodi:sides="4"
     sodipodi:cx="731.38983"
     sodipodi:cy="288.81357"
     sodipodi:r1="4.148355"
     sodipodi:r2="2.0741775"
     sodipodi:arg1="1.3734008"
     sodipodi:arg2="2.1587989"
     inkscape:flatsided="false"
     inkscape:rounded="0"
     inkscape:randomized="0"
     d="m 732.20339,292.88136 -1.96411,-2.34197 -2.91725,-0.91226 2.34198,-1.96411 0.91226,-2.91725 1.96411,2.34198 2.91725,0.91226 -2.34198,1.9641 z" />
  <path
     sodipodi:type="star"
     style="opacity:1;fill:#ffffff;fill-opacity:0.6445498;stroke:none;stroke-width:3.77952766;stroke-miterlimit:4;stroke-dasharray:none;stroke-opacity:1"
     id="path898"
     sodipodi:sides="4"
     sodipodi:cx="644.33899"
     sodipodi:cy="379.11865"
     sodipodi:r1="4.0677967"
     sodipodi:r2="2.0338984"
     sodipodi:arg1="0.92729522"
     sodipodi:arg2="1.7126934"
     inkscape:flatsided="false"
     inkscape:rounded="0"
     inkscape:randomized="0"
     d="m 646.77967,382.37289 -2.72832,-1.24078 -2.9666,0.42722 1.24078,-2.72831 -0.42722,-2.96661 2.72832,1.24079 2.9666,-0.42723 -1.24078,2.72832 z" />
  <path
     sodipodi:type="star"
     style="opacity:1;fill:#ffffff;fill-opacity:0.6445498;stroke:none;stroke-width:3.77952766;stroke-miterlimit:4;stroke-dasharray:none;stroke-opacity:1"
     id="path902"
     sodipodi:sides="4"
     sodipodi:cx="410.03391"
     sodipodi:cy="354.71185"
     sodipodi:r1="2.4406779"
     sodipodi:r2="1.2203389"
     sodipodi:arg1="0"
     sodipodi:arg2="0.78539816"
     inkscape:flatsided="false"
     inkscape:rounded="0"
     inkscape:randomized="0"
     d="m 412.47458,354.71185 -1.57777,0.86291 -0.8629,1.57777 -0.86291,-1.57777 -1.57777,-0.86291 1.57777,-0.86291 0.86291,-1.57776 0.8629,1.57776 z" />
  <path
     sodipodi:type="star"
     style="opacity:1;fill:#ffffff;fill-opacity:0.6445498;stroke:none;stroke-width:3.77952766;stroke-miterlimit:4;stroke-dasharray:none;stroke-opacity:1"
     id="path906"
     sodipodi:sides="4"
     sodipodi:cx="796.75354"
     sodipodi:cy="286.49622"
     sodipodi:r1="2.0741775"
     sodipodi:r2="1.0370888"
     sodipodi:arg1="0.5880026"
     sodipodi:arg2="1.3734008"
     inkscape:flatsided="false"
     inkscape:rounded="0"
     inkscape:randomized="0"
     d="m 798.47936,287.64676 -1.52243,-0.13359 -1.35394,0.70887 0.1336,-1.52243 -0.70887,-1.35394 1.52243,0.1336 1.35394,-0.70887 -0.1336,1.52243 z" />
  <path
     sodipodi:type="star"
     style="opacity:1;fill:#ffffff;fill-opacity:0.6445498;stroke:none;stroke-width:3.77952766;stroke-miterlimit:4;stroke-dasharray:none;stroke-opacity:1"
     id="path908"
     sodipodi:sides="4"
     sodipodi:cx="120.8074"
     sodipodi:cy="69.042915"
     sodipodi:r1="2.8763666"
     sodipodi:r2="1.4381833"
     sodipodi:arg1="0.92729522"
     sodipodi:arg2="1.7126934"
     inkscape:flatsided="false"
     inkscape:rounded="0"
     inkscape:randomized="0"
     d="m 122.53322,71.344009 -1.92921,-0.877365 -2.0977,0.302091 0.87736,-1.92921 -0.30209,-2.097703 1.92921,0.877365 2.09771,-0.302092 -0.87737,1.92921 z" />
  <path
     sodipodi:type="star"
     style="opacity:1;fill:#ffffff;fill-opacity:0.6445498;stroke:none;stroke-width:3.77952766;stroke-miterlimit:4;stroke-dasharray:none;stroke-opacity:1"
     id="path910"
     sodipodi:sides="4"
     sodipodi:cx="978.53992"
     sodipodi:cy="159.9361"
     sodipodi:r1="3.6383479"
     sodipodi:r2="1.8191741"
     sodipodi:arg1="0.32175055"
     sodipodi:arg2="1.1071487"
     inkscape:flatsided="false"
     inkscape:rounded="0"
     inkscape:randomized="0"
     d="m 981.99156,161.08664 -2.63808,0.47657 -1.96411,1.82453 -0.47657,-2.63808 -1.82452,-1.96411 2.63808,-0.47657 1.9641,-1.82452 0.47658,2.63808 z" />
  <path
     sodipodi:type="star"
     style="opacity:1;fill:#ffffff;fill-opacity:0.6445498;stroke:none;stroke-width:3.77952766;stroke-miterlimit:4;stroke-dasharray:none;stroke-opacity:1"
     id="path912"
     sodipodi:sides="5"
     sodipodi:cx="933.09332"
     sodipodi:cy="252.55511"
     sodipodi:r1="3.4516399"
     sodipodi:r2="1.7258199"
     sodipodi:arg1="1.5707963"
     sodipodi:arg2="2.1991149"
     inkscape:flatsided="false"
     inkscape:rounded="0"
     inkscape:randomized="0"
     d="m 933.09332,256.00675 -1.01441,-2.05542 -2.26829,-0.3296 1.64135,-1.59992 -0.38747,-2.25913 2.02882,1.06661 2.02883,-1.06661 -0.38747,2.25913 1.64135,1.59992 -2.2683,0.3296 z"
     inkscape:transform-center-y="0.32960228" />
  <path
     sodipodi:type="star"
     style="opacity:1;fill:#ffffff;fill-opacity:0.6445498;stroke:none;stroke-width:3.77952766;stroke-miterlimit:4;stroke-dasharray:none;stroke-opacity:1"
     id="path914"
     sodipodi:sides="5"
     sodipodi:cx="860.03363"
     sodipodi:cy="317.561"
     sodipodi:r1="2.4406779"
     sodipodi:r2="1.2203389"
     sodipodi:arg1="0.78539816"
     sodipodi:arg2="1.4137167"
     inkscape:flatsided="false"
     inkscape:rounded="0"
     inkscape:randomized="0"
     d="m 861.75945,319.28682 -1.53492,-0.5205 -1.29894,0.96934 0.0207,-1.62063 -1.3233,-0.93583 1.54772,-0.48111 0.4811,-1.54771 0.93583,1.32329 1.62064,-0.0207 -0.96935,1.29895 z"
     inkscape:transform-center-x="0.11798459"
     inkscape:transform-center-y="-0.11798459" />
  <path
     sodipodi:type="star"
     style="opacity:1;fill:#ffffff;fill-opacity:0.6445498;stroke:none;stroke-width:3.77952766;stroke-miterlimit:4;stroke-dasharray:none;stroke-opacity:1"
     id="path916"
     sodipodi:sides="5"
     sodipodi:cx="252.61017"
     sodipodi:cy="336"
     sodipodi:r1="1.6271187"
     sodipodi:r2="0.81355935"
     sodipodi:arg1="1.5707963"
     sodipodi:arg2="2.1991149"
     inkscape:flatsided="false"
     inkscape:rounded="0"
     inkscape:randomized="0"
     d="m 252.61017,337.62712 -0.4782,-0.96894 -1.06928,-0.15537 0.77374,-0.75421 -0.18266,-1.06497 0.9564,0.50281 0.95639,-0.50281 -0.18265,1.06497 0.77374,0.75421 -1.06928,0.15537 z"
     inkscape:transform-center-y="0.15537601" />
  <path
     sodipodi:type="star"
     style="opacity:1;fill:#ffffff;fill-opacity:0.6445498;stroke:none;stroke-width:3.77952766;stroke-miterlimit:4;stroke-dasharray:none;stroke-opacity:1"
     id="path918"
     sodipodi:sides="5"
     sodipodi:cx="66.711868"
     sodipodi:cy="262.37289"
     sodipodi:r1="2.1905756"
     sodipodi:r2="1.0952878"
     sodipodi:arg1="1.1902899"
     sodipodi:arg2="1.8186085"
     inkscape:flatsided="false"
     inkscape:rounded="0"
     inkscape:randomized="0"
     d="m 67.525428,264.40679 -1.082216,-0.97207 -1.414292,0.34042 0.59007,-1.32963 -0.760801,-1.23988 1.4469,0.15032 0.944091,-1.10671 0.304163,1.42253 1.344281,0.55589 -1.258916,0.72886 z"
     inkscape:transform-center-x="-0.16603857"
     inkscape:transform-center-y="-0.04487908" />
  <path
     sodipodi:type="star"
     style="opacity:1;fill:#ffffff;fill-opacity:0.6445498;stroke:none;stroke-width:3.77952766;stroke-miterlimit:4;stroke-dasharray:none;stroke-opacity:1"
     id="path920"
     sodipodi:sides="4"
     sodipodi:cx="122.44068"
     sodipodi:cy="305.08475"
     sodipodi:r1="2.0741775"
     sodipodi:r2="1.0370888"
     sodipodi:arg1="0.19739556"
     sodipodi:arg2="0.98279372"
     inkscape:flatsided="false"
     inkscape:rounded="0"
     inkscape:randomized="0"
     d="m 124.47458,305.49153 -1.45863,0.45613 -0.98205,1.17099 -0.45613,-1.45863 -1.17099,-0.98205 1.45863,-0.45613 0.98205,-1.17099 0.45613,1.45862 z"
     inkscape:transform-center-x="-0.074670463"
     inkscape:transform-center-y="0.12570183" />
  <path
     sodipodi:type="star"
     style="opacity:1;fill:#ffffff;fill-opacity:0.6445498;stroke:none;stroke-width:3.77952766;stroke-miterlimit:4;stroke-dasharray:none;stroke-opacity:1"
     id="path922"
     sodipodi:sides="4"
     sodipodi:cx="117.9661"
     sodipodi:cy="216.81355"
     sodipodi:r1="2.0338984"
     sodipodi:r2="1.0169492"
     sodipodi:arg1="0.92729522"
     sodipodi:arg2="1.7126934"
     inkscape:flatsided="false"
     inkscape:rounded="0"
     inkscape:randomized="0"
     d="m 119.18644,218.44067 -1.36416,-0.62039 -1.4833,0.21361 0.62039,-1.36416 -0.21361,-1.4833 1.36416,0.62039 1.4833,-0.21361 -0.62039,1.36416 z" />
  <path
     sodipodi:type="star"
     style="opacity:1;fill:#ffffff;fill-opacity:0.6445498;stroke:none;stroke-width:3.77952766;stroke-miterlimit:4;stroke-dasharray:none;stroke-opacity:1"
     id="path924"
     sodipodi:sides="4"
     sodipodi:cx="195.66103"
     sodipodi:cy="101.69491"
     sodipodi:r1="3.2542374"
     sodipodi:r2="1.6271187"
     sodipodi:arg1="0"
     sodipodi:arg2="0.78539816"
     inkscape:flatsided="false"
     inkscape:rounded="0"
     inkscape:randomized="0"
     d="m 198.91526,101.69491 -2.10369,1.15054 -1.15054,2.1037 -1.15055,-2.1037 -2.10369,-1.15054 2.10369,-1.15055 1.15055,-2.103689 1.15054,2.103689 z" />
  <path
     sodipodi:type="star"
     style="opacity:1;fill:#ffffff;fill-opacity:0.6445498;stroke:none;stroke-width:3.77952766;stroke-miterlimit:4;stroke-dasharray:none;stroke-opacity:1"
     id="path926"
     sodipodi:sides="4"
     sodipodi:cx="104.98738"
     sodipodi:cy="186.39868"
     sodipodi:r1="1.1859564"
     sodipodi:r2="0.59297818"
     sodipodi:arg1="1.3258177"
     sodipodi:arg2="2.1112158"
     inkscape:flatsided="false"
     inkscape:rounded="0"
     inkscape:randomized="0"
     d="m 105.27502,187.54923 -0.59272,-0.64207 -0.84547,-0.22084 0.64208,-0.59272 0.22083,-0.84547 0.59273,0.64208 0.84546,0.22084 -0.64207,0.59272 z" />
  <path
     sodipodi:type="star"
     style="opacity:1;fill:#ffffff;fill-opacity:0.6445498;stroke:none;stroke-width:3.77952766;stroke-miterlimit:4;stroke-dasharray:none;stroke-opacity:1"
     id="path928"
     sodipodi:sides="4"
     sodipodi:cx="19.84693"
     sodipodi:cy="300.01517"
     sodipodi:r1="1.6771955"
     sodipodi:r2="0.83859777"
     sodipodi:arg1="1.0303768"
     sodipodi:arg2="1.815775"
     inkscape:flatsided="false"
     inkscape:rounded="0"
     inkscape:randomized="0"
     d="m 20.70984,301.45335 -1.0663,-0.62462 -1.234794,0.0494 0.624624,-1.0663 -0.04935,-1.2348 1.066299,0.62463 1.234794,-0.0494 -0.624624,1.0663 z" />
  <path
     sodipodi:type="star"
     style="opacity:1;fill:#ffffff;fill-opacity:0.6445498;stroke:none;stroke-width:3.77952766;stroke-miterlimit:4;stroke-dasharray:none;stroke-opacity:1"
     id="path930"
     sodipodi:sides="4"
     sodipodi:cx="129.43649"
     sodipodi:cy="369.91086"
     sodipodi:r1="1.5489708"
     sodipodi:r2="0.77448541"
     sodipodi:arg1="1.1902899"
     sodipodi:arg2="1.9756881"
     inkscape:flatsided="false"
     inkscape:rounded="0"
     inkscape:randomized="0"
     d="m 130.01177,371.34904 -0.88036,-0.72632 -1.1331,-0.13659 0.72632,-0.88036 0.13659,-1.1331 0.88036,0.72632 1.1331,0.13659 -0.72632,0.88036 z" />
  <path
     sodipodi:type="star"
     style="opacity:1;fill:#ffffff;fill-opacity:0.6445498;stroke:none;stroke-width:3.77952766;stroke-miterlimit:4;stroke-dasharray:none;stroke-opacity:1"
     id="path932"
     sodipodi:sides="4"
     sodipodi:cx="279.87048"
     sodipodi:cy="231.84528"
     sodipodi:r1="1.8417733"
     sodipodi:r2="0.92088664"
     sodipodi:arg1="0.89605538"
     sodipodi:arg2="1.6814535"
     inkscape:flatsided="false"
     inkscape:rounded="0"
     inkscape:randomized="0"
     d="m 281.02103,233.28346 -1.25224,-0.52293 -1.33649,0.23529 0.52293,-1.25224 -0.23529,-1.33649 1.25224,0.52293 1.33649,-0.23529 -0.52293,1.25224 z" />
  <path
     sodipodi:type="star"
     style="opacity:1;fill:#ffffff;fill-opacity:0.6445498;stroke:none;stroke-width:3.77952766;stroke-miterlimit:4;stroke-dasharray:none;stroke-opacity:1"
     id="path934"
     sodipodi:sides="4"
     sodipodi:cx="715.93219"
     sodipodi:cy="111.8644"
     sodipodi:r1="2.3010933"
     sodipodi:r2="1.1505466"
     sodipodi:arg1="0.78539816"
     sodipodi:arg2="1.5707963"
     inkscape:flatsided="false"
     inkscape:rounded="0"
     inkscape:randomized="0"
     d="m 717.55931,113.49152 -1.62712,-0.47657 -1.62712,0.47657 0.47657,-1.62712 -0.47657,-1.62712 1.62712,0.47658 1.62712,-0.47658 -0.47657,1.62712 z" />
  <path
     sodipodi:type="star"
     style="opacity:1;fill:#ffffff;fill-opacity:0.6445498;stroke:none;stroke-width:3.77952766;stroke-miterlimit:4;stroke-dasharray:none;stroke-opacity:1"
     id="path936"
     sodipodi:sides="4"
     sodipodi:cx="738.30511"
     sodipodi:cy="210.71185"
     sodipodi:r1="2.1905756"
     sodipodi:r2="1.0952878"
     sodipodi:arg1="0.38050638"
     sodipodi:arg2="1.1659045"
     inkscape:flatsided="false"
     inkscape:rounded="0"
     inkscape:randomized="0"
     d="m 740.33901,211.52541 -1.60244,0.19317 -1.24501,1.02717 -0.19317,-1.60244 -1.02717,-1.24502 1.60244,-0.19317 1.24501,-1.02717 0.19317,1.60245 z" />
  <path
     sodipodi:type="star"
     style="opacity:1;fill:#ffffff;fill-opacity:0.6445498;stroke:none;stroke-width:3.77952766;stroke-miterlimit:4;stroke-dasharray:none;stroke-opacity:1"
     id="path938"
     sodipodi:sides="4"
     sodipodi:cx="841.62714"
     sodipodi:cy="165.96609"
     sodipodi:r1="2.0338984"
     sodipodi:r2="1.0169492"
     sodipodi:arg1="3.1415927"
     sodipodi:arg2="3.9269908"
     inkscape:flatsided="false"
     inkscape:rounded="0"
     inkscape:randomized="0"
     d="m 839.59324,165.96609 1.3148,-0.71909 0.7191,-1.3148 0.71909,1.3148 1.3148,0.7191 -1.3148,0.71909 -0.71909,1.3148 -0.7191,-1.3148 z" />
  <path
     sodipodi:type="star"
     style="opacity:1;fill:#ffffff;fill-opacity:0.6445498;stroke:none;stroke-width:3.77952766;stroke-miterlimit:4;stroke-dasharray:none;stroke-opacity:1"
     id="path940"
     sodipodi:sides="4"
     sodipodi:cx="827.79663"
     sodipodi:cy="245.69492"
     sodipodi:r1="1.8191741"
     sodipodi:r2="0.90958697"
     sodipodi:arg1="0.46364761"
     sodipodi:arg2="1.2490458"
     inkscape:flatsided="false"
     inkscape:rounded="0"
     inkscape:randomized="0"
     d="m 829.42375,246.50848 -1.33948,0.0494 -1.1012,0.7642 -0.0494,-1.33948 -0.76421,-1.10119 1.33948,-0.0494 1.1012,-0.76421 0.0494,1.33948 z" />
  <path
     sodipodi:type="star"
     style="opacity:1;fill:#ffffff;fill-opacity:0.6445498;stroke:none;stroke-width:3.77952766;stroke-miterlimit:4;stroke-dasharray:none;stroke-opacity:1"
     id="path942"
     sodipodi:sides="4"
     sodipodi:cx="775.72882"
     sodipodi:cy="336.40677"
     sodipodi:r1="2.3010933"
     sodipodi:r2="1.1505466"
     sodipodi:arg1="0.78539816"
     sodipodi:arg2="1.5707963"
     inkscape:flatsided="false"
     inkscape:rounded="0"
     inkscape:randomized="0"
     d="m 777.35594,338.03389 -1.62712,-0.47657 -1.62712,0.47657 0.47657,-1.62712 -0.47657,-1.62712 1.62712,0.47657 1.62712,-0.47657 -0.47657,1.62712 z" />
  <path
     sodipodi:type="star"
     style="opacity:1;fill:#ffffff;fill-opacity:0.6445498;stroke:none;stroke-width:3.77952766;stroke-miterlimit:4;stroke-dasharray:none;stroke-opacity:1"
     id="path944"
     sodipodi:sides="4"
     sodipodi:cx="922.98303"
     sodipodi:cy="164.33897"
     sodipodi:r1="2.3719127"
     sodipodi:r2="1.1859564"
     sodipodi:arg1="0.5404195"
     sodipodi:arg2="1.3258177"
     inkscape:flatsided="false"
     inkscape:rounded="0"
     inkscape:randomized="0"
     d="m 925.01693,165.55931 -1.74626,-0.0698 -1.50798,0.88335 0.0698,-1.74626 -0.88336,-1.50798 1.74627,0.0698 1.50797,-0.88335 -0.0698,1.74626 z" />
</svg>
