<?xml version="1.0" encoding="UTF-8" standalone="no"?>
<svg
   xmlns:dc="http://purl.org/dc/elements/1.1/"
   xmlns:cc="http://creativecommons.org/ns#"
   xmlns:rdf="http://www.w3.org/1999/02/22-rdf-syntax-ns#"
   xmlns:svg="http://www.w3.org/2000/svg"
   xmlns="http://www.w3.org/2000/svg"
   xmlns:sodipodi="http://sodipodi.sourceforge.net/DTD/sodipodi-0.dtd"
   xmlns:inkscape="http://www.inkscape.org/namespaces/inkscape"
   version="1.1"
   id="svg5401"
   viewBox="0 0 1308.9473 2450.3785"
   height="691.55127mm"
   width="369.41391mm"
   inkscape:version="0.92.2 (5c3e80d, 2017-08-06)"
   sodipodi:docname="logo_2_grey_v2.svg">
  <sodipodi:namedview
     pagecolor="#ffffff"
     bordercolor="#666666"
     borderopacity="1"
     objecttolerance="10"
     gridtolerance="10"
     guidetolerance="10"
     inkscape:pageopacity="0"
     inkscape:pageshadow="2"
     inkscape:window-width="1280"
     inkscape:window-height="968"
     id="namedview24"
     showgrid="false"
     fit-margin-top="0"
     fit-margin-left="0"
     fit-margin-right="0"
     fit-margin-bottom="0"
     inkscape:zoom="0.2918455"
     inkscape:cx="105.74361"
     inkscape:cy="808.49245"
     inkscape:window-x="0"
     inkscape:window-y="0"
     inkscape:window-maximized="1"
     inkscape:current-layer="svg5401" />
  <defs
     id="defs5403" />
  <metadata
     id="metadata5406">
    <rdf:RDF>
      <cc:Work
         rdf:about="">
        <dc:format>image/svg+xml</dc:format>
        <dc:type
           rdf:resource="http://purl.org/dc/dcmitype/StillImage" />
        <dc:title />
      </cc:Work>
    </rdf:RDF>
  </metadata>
  <path
     style="fill:none;stroke:#242424;stroke-width:35.84000793;stroke-linecap:butt;stroke-linejoin:miter;stroke-miterlimit:4;stroke-dasharray:none;stroke-opacity:1"
     d="M 1264.1288,2093.4112 654.10798,2421.9826 44.086974,2093.4112"
     id="path3072-8-2-3-6"
     inkscape:connector-curvature="0"
     sodipodi:nodetypes="ccc" />
  <path
     style="fill:none;stroke:#242424;stroke-width:35.84000793;stroke-linecap:butt;stroke-linejoin:miter;stroke-miterlimit:4;stroke-dasharray:none;stroke-opacity:1"
     d="M 1264.7312,1278.6832 654.10798,2019.4112 43.484574,1278.6832"
     id="path3072-8-1-7-6-8"
     inkscape:connector-curvature="0"
     sodipodi:nodetypes="ccc" />
  <path
     style="fill:none;stroke:#242424;stroke-width:35.84000793;stroke-linecap:butt;stroke-linejoin:miter;stroke-miterlimit:4;stroke-dasharray:none;stroke-opacity:1"
     d="m 880.7064,2300.5791 -1.1927,-1.4467 c -79.4721,-96.4052 -146.9162,-178.2195 -225.40572,-273.4328 -75.3296,91.3827 -156.5499,189.9021 -225.4059,273.4328 l -1.1926,1.4467"
     id="path3072-8-1-7-6-5-0"
     inkscape:connector-curvature="0"
     sodipodi:nodetypes="ccccc" />
  <path
     style="fill:none;stroke:#242424;stroke-width:25.6000061;stroke-linecap:butt;stroke-linejoin:miter;stroke-miterlimit:4;stroke-dasharray:none;stroke-opacity:1"
     d="m 959.4195,1649.0472 -610.62322,0"
     id="path3072-8-1-7-6-6-5"
     inkscape:connector-curvature="0"
     sodipodi:nodetypes="cc" />
  <path
     style="fill:none;stroke:#242424;stroke-width:35.84000793;stroke-linecap:butt;stroke-linejoin:miter;stroke-miterlimit:4;stroke-dasharray:none;stroke-opacity:1"
     d="m 786.4891,1648.5668 c -0.3976,0.4823 -0.7951,0.9645 -1.1926,1.4468 -44.8301,54.3822 -91.15832,110.5812 -131.18852,159.1407 -46.4061,-56.2938 -90.0519,-109.2391 -131.1886,-159.1407 -0.3976,-0.4823 -0.7951,-0.9645 -1.1927,-1.4468"
     id="path3072-8-1-7-6-63-5"
     inkscape:connector-curvature="0"
     sodipodi:nodetypes="ccccc" />
  <path
     style="fill:none;stroke:#242424;stroke-width:35.84000793;stroke-linecap:butt;stroke-linejoin:miter;stroke-miterlimit:4;stroke-dasharray:none;stroke-opacity:1"
     d="m 654.10798,1647.2946 0,-627.3047"
     id="path4356"
     inkscape:connector-curvature="0"
     sodipodi:nodetypes="cc" />
  <path
     style="fill:none;stroke:#242424;stroke-width:35.84000793;stroke-linecap:butt;stroke-linejoin:miter;stroke-miterlimit:4;stroke-dasharray:none;stroke-opacity:1"
     d="m 433.89468,1203.3248 440.42652,0"
     id="path4358"
     inkscape:connector-curvature="0" />
  <path
     style="fill:none;stroke:#242424;stroke-width:35.84000793;stroke-linecap:butt;stroke-linejoin:miter;stroke-miterlimit:4;stroke-dasharray:none;stroke-opacity:1"
     d="m 394.49878,1408.3858 519.21842,0"
     id="path4362"
     inkscape:connector-curvature="0"
     sodipodi:nodetypes="cc" />
  <g
     id="g4165"
     transform="translate(1835.6804,-2291.2099)"
     style="stroke-width:35.84000793;stroke-miterlimit:4;stroke-dasharray:none;stroke:#242424;stroke-opacity:1">
    <circle
       r="8.0812206"
       cy="4705.0737"
       cx="-1319.2593"
       id="path4148"
       style="fill:none;stroke:#242424;stroke-width:35.84000793;stroke-miterlimit:4;stroke-dasharray:none;stroke-opacity:1" />
    <circle
       r="8.0812206"
       cy="4705.0737"
       cx="-1043.8857"
       id="path4148-6"
       style="fill:none;stroke:#242424;stroke-width:35.84000793;stroke-miterlimit:4;stroke-dasharray:none;stroke-opacity:1" />
  </g>
  <path
     style="fill:none;stroke:#242424;stroke-width:35.84000793;stroke-linecap:butt;stroke-linejoin:miter;stroke-miterlimit:4;stroke-dasharray:none;stroke-opacity:1"
     d="m 309.42768,709.8733 c 29.7028,-107.0716 166.4544,-137.1722 222.8135,-79.5119 18.2363,26.2608 50.7039,52.2608 78.1252,102.7098 42.5045,78.1987 276.50672,-53.6558 305.71422,11.4286 72.571,76.8285 87.4659,126.6917 40,177.1429 -36.3348,54.5022 -164.3636,-32.1548 -205.7143,-25.7143 -189.60672,29.532 -264.14092,107.2875 -399.99992,-28.5714 -39.2289,-48.8811 -73.2738,-99.5315 -40.9387,-157.4837 z"
     id="path5335"
     inkscape:connector-curvature="0"
     sodipodi:nodetypes="ccsccscc" />
  <path
     style="fill:none;stroke:#242424;stroke-width:35.84000793;stroke-linecap:butt;stroke-linejoin:miter;stroke-miterlimit:4;stroke-dasharray:none;stroke-opacity:1"
     d="m 405.06383,574.78002 -680.2646,-59.51544"
     id="path5339"
     inkscape:connector-curvature="0" />
  <path
     style="fill:none;stroke:#242424;stroke-width:35.84000793;stroke-linecap:butt;stroke-linejoin:miter;stroke-miterlimit:4;stroke-dasharray:none;stroke-opacity:1"
     d="M 511.41898,423.804 96.739676,184.3889"
     id="path5341"
     inkscape:connector-curvature="0" />
  <path
     style="fill:none;stroke:#242424;stroke-width:35.84000793;stroke-linecap:butt;stroke-linejoin:miter;stroke-miterlimit:4;stroke-dasharray:none;stroke-opacity:1"
     d="M 668.30948,399.5604 667.99298,0.01980399"
     id="path5345"
     inkscape:connector-curvature="0"
     sodipodi:nodetypes="cc" />
  <path
     style="fill:none;stroke:#242424;stroke-width:35.84000793;stroke-linecap:butt;stroke-linejoin:miter;stroke-miterlimit:4;stroke-dasharray:none;stroke-opacity:1"
     d="M 802.3428,448.0476 1060.9419,246.0171"
     id="path5347"
     inkscape:connector-curvature="0"
     sodipodi:nodetypes="cc" />
  <path
     style="fill:none;stroke:#242424;stroke-width:35.84000793;stroke-linecap:butt;stroke-linejoin:miter;stroke-miterlimit:4;stroke-dasharray:none;stroke-opacity:1"
     d="m 887.2772,614.34773 267.7847,-9.35126"
     id="path5349"
     inkscape:connector-curvature="0"
     sodipodi:nodetypes="cc" />
  <path
     style="fill:none;stroke:#242424;stroke-width:35.84000793;stroke-miterlimit:4;stroke-dasharray:none;stroke-opacity:1"
     d="m 634.43468,749.0555 c -7.9668,-3.6471 -18.6873,-15.087 -28.2863,-30.1845 -29.4013,-46.2427 -74.5504,-96.8917 -95.0897,-106.6731 -10.465,-4.9838 -19.1018,-10.9866 -19.1929,-13.3397 -0.2844,-7.3469 27.9567,-51.6018 42.4805,-66.5686 33.776,-34.8061 88.0824,-55.3134 134.9009,-50.9414 35.3269,3.2988 77.52632,23.6932 104.18322,50.3501 23.7583,23.7582 46.8199,66.8801 53.8448,100.6818 4.6647,22.4454 3.4004,87.6965 -1.8,92.8969 -1.3529,1.3528 -25.6395,7.6153 -53.9702,13.9166 -63.97512,14.2293 -118.89812,18.1809 -137.07032,9.8619 z"
     id="path5387"
     inkscape:connector-curvature="0" />
  <ellipse
     style="fill:#000000;fill-opacity:1;stroke:#000000;stroke-width:731.73317446;stroke-miterlimit:4;stroke-dasharray:none;stroke-opacity:1"
     id="path3075"
     cy="604.0697"
     cx="600.11835"
     r="20" />
  <circle
     style="fill:#000000;fill-opacity:1;stroke:#242424;stroke-width:731.73317446;stroke-miterlimit:4;stroke-dasharray:none;stroke-opacity:1"
     id="path3075-0"
     cx="754.86865"
     cy="644.62848"
     r="20" />
  <circle
     style="fill:#000000;fill-opacity:1;stroke:#000000;stroke-width:731.7331543;stroke-miterlimit:4;stroke-dasharray:none;stroke-opacity:1"
     id="path3075-0-3"
     cx="754.8689"
     cy="644.6286"
     r="0" />
  <ellipse
     style="fill:#000000;fill-opacity:1;stroke:#242424;stroke-width:731.7331543;stroke-miterlimit:4;stroke-dasharray:none;stroke-opacity:1"
     id="path3075-0-6"
     cx="592.77954"
     cy="600.08429"
     rx="20.000006"
     ry="20.000004" />
  <path
     style="fill:#242424;fill-opacity:1;fill-rule:evenodd;stroke:none;stroke-width:731.73297119;stroke-linejoin:miter;stroke-miterlimit:4;stroke-dasharray:none;stroke-opacity:1"
     id="path4169"
     sodipodi:type="arc"
     sodipodi:cx="752.96686"
     sodipodi:cy="639.48853"
     sodipodi:rx="31.694851"
     sodipodi:ry="30.838236"
     sodipodi:start="0"
     sodipodi:end="6.2201266"
     d="m 784.66171,639.48853 a 31.694851,30.838236 0 0 1 -31.19521,30.8344 31.694851,30.838236 0 0 1 -32.17874,-29.86226 31.694851,30.838236 0 0 1 30.18068,-31.7759 31.694851,30.838236 0 0 1 33.13027,28.86042 l -31.63185,1.94334 z" />
  <path
     style="fill:#242424;fill-opacity:1;fill-rule:evenodd;stroke:none;stroke-width:731.73297119;stroke-linejoin:miter;stroke-miterlimit:4;stroke-dasharray:none;stroke-opacity:1"
     id="path4169-7"
     sodipodi:type="arc"
     sodipodi:cx="591.06635"
     sodipodi:cy="600.94092"
     sodipodi:rx="31.69486"
     sodipodi:ry="30.838242"
     sodipodi:start="0"
     sodipodi:end="6.2201266"
     d="m 622.76121,600.94092 a 31.69486,30.838242 0 0 1 -31.19523,30.83441 31.69486,30.838242 0 0 1 -32.17874,-29.86226 31.69486,30.838242 0 0 1 30.18069,-31.77591 31.69486,30.838242 0 0 1 33.13028,28.86043 l -31.63186,1.94333 z" />
</svg>
