<?xml version="1.0" encoding="UTF-8" standalone="no"?>
<!-- Created with Inkscape (http://www.inkscape.org/) -->

<svg
   xmlns:dc="http://purl.org/dc/elements/1.1/"
   xmlns:cc="http://creativecommons.org/ns#"
   xmlns:rdf="http://www.w3.org/1999/02/22-rdf-syntax-ns#"
   xmlns:svg="http://www.w3.org/2000/svg"
   xmlns="http://www.w3.org/2000/svg"
   xmlns:sodipodi="http://sodipodi.sourceforge.net/DTD/sodipodi-0.dtd"
   xmlns:inkscape="http://www.inkscape.org/namespaces/inkscape"
   width="400"
   height="400"
   viewBox="0 0 374.99998 375"
   id="svg2"
   version="1.1"
   inkscape:version="0.92.1 r15371"
   sodipodi:docname="sun_2_v2.svg">
  <defs
     id="defs4">
    <inkscape:path-effect
       effect="skeletal"
       id="path-effect4188"
       is_visible="true"
       pattern="m 164.50555,339.69075 c 0,-2.76 2.24,-5 5,-5 2.76,0 5,2.24 5,5 0,2.76 -2.24,5 -5,5 -2.76,0 -5,-2.24 -5,-5 z"
       copytype="single_stretched"
       prop_scale="1"
       scale_y_rel="false"
       spacing="0"
       normal_offset="0"
       tang_offset="0"
       prop_units="false"
       vertical_pattern="false"
       fuse_tolerance="0" />
  </defs>
  <sodipodi:namedview
     id="base"
     pagecolor="#ffffff"
     bordercolor="#666666"
     borderopacity="1.0"
     inkscape:pageopacity="0.0"
     inkscape:pageshadow="2"
     inkscape:zoom="1.4"
     inkscape:cx="223.64099"
     inkscape:cy="176.98991"
     inkscape:document-units="px"
     inkscape:current-layer="layer1"
     showgrid="false"
     fit-margin-top="0"
     fit-margin-left="0"
     fit-margin-right="0"
     fit-margin-bottom="0"
     inkscape:window-width="1280"
     inkscape:window-height="960"
     inkscape:window-x="0"
     inkscape:window-y="0"
     inkscape:window-maximized="1"
     objecttolerance="1"
     guidetolerance="1"
     units="px" />
  <metadata
     id="metadata7">
    <rdf:RDF>
      <cc:Work
         rdf:about="">
        <dc:format>image/svg+xml</dc:format>
        <dc:type
           rdf:resource="http://purl.org/dc/dcmitype/StillImage" />
        <dc:title />
      </cc:Work>
    </rdf:RDF>
  </metadata>
  <g
     inkscape:label="Layer 1"
     inkscape:groupmode="layer"
     id="layer1"
     transform="translate(-164.00603,-325.68106)">
    <path
       style="fill:#000000;stroke:#000000;stroke-width:0.95729834;stroke-miterlimit:4;stroke-dasharray:none;stroke-opacity:1"
       d="m 341.39875,680.82467 c -1.50539,1.17615 -3.42956,-6.01747 -6.24165,-6.53625 0.18204,-1.73413 -5.17239,-16.41588 0.41352,-10.89634 -4.48791,-5.82931 0.7464,-10.54769 0.43546,-15.95107 1.653,-4.37455 5.20737,-10.85124 9.02743,-17.13778 4.85338,-11.62426 9.91863,-25.63218 3.38725,-32.00257 2.02519,-6.31414 -2.67953,-8.6767 -3.5019,-2.27779 -2.84386,0.90568 -1.77096,-4.81008 -3.73361,-3.57077 -5.0982,1.823 -10.07147,7.74436 -10.36271,10.97929 -5.70376,2.38124 -7.32234,8.29935 -13.46493,9.62043 -4.83373,-4.06114 -8.66034,3.79967 -11.75491,-0.85107 -4.35946,1.10027 -9.67987,-0.0849 -15.09188,0 -5.98854,3.53374 -18.72128,3.05326 -18.36259,13.30092 -3.17512,-3.86888 -7.22075,15.89132 -7.59588,21.10307 3.86681,12.61956 -13.45583,18.45051 -6.04094,3.26262 4.42688,-11.35869 2.00113,-24.76404 12.36566,-33.43799 10.02573,-9.70095 23.92183,-6.49297 35.84389,-11.44476 7.42056,-2.93686 11.04983,-14.50791 11.81823,-17.90474 -0.23943,-4.21129 -5.98701,-6.61298 -11.3938,-6.94321 -3.52198,4.12697 -7.39269,5.20631 -10.18936,8.45058 -2.30707,1.5329 -5.21301,2.23723 -9.59941,5.2169 -5.76845,0.51285 -4.80193,-2.74808 -11.92134,-3.76935 -4.80841,-0.88361 -11.27816,-1.40524 -15.08933,-2.08342 -7.0969,-0.40477 -16.55373,-2.35641 -22.38204,-0.96456 -3.52224,1.80813 -9.98051,2.85115 -14.87048,7.14154 -1.5606,7.07377 -16.31208,22.88131 -11.65237,7.09063 4.71099,-16.93196 20.0661,-24.97853 36.3156,-23.68284 12.41849,-0.73717 25.53461,5.39967 36.89387,-0.0482 5.10014,-3.74444 12.06302,-8.57527 12.4531,-15.0623 -2.57527,-7.98927 -9.89447,-8.70147 -16.13145,-3.85919 -6.89783,4.87511 -14.45336,1.23767 -19.73454,3.64375 -6.65806,-0.99162 -8.43892,-1.39152 -12.77883,-6.81295 -12.23609,-4.3347 -23.06265,-11.69604 -35.38662,-15.65011 -6.58647,-6.53045 -19.49966,-8.11169 -23.12947,2.82266 -16.84917,-0.13594 0.84149,-17.064 9.59429,-13.0445 12.89799,2.46914 24.05235,8.70924 37.01188,8.12288 9.53583,7.2847 21.10791,6.36381 32.55455,3.39935 9.81927,1.9612 16.45702,-5.72749 8.93863,-13.21781 -2.60443,-3.19104 -15.65067,-0.60237 -26.34895,-0.1717 -5.63274,-2.89083 -11.5769,3.69443 -13.72949,-1.52183 -5.86517,0.63253 -4.53714,-6.63936 -7.03934,-4.86241 0.95816,-6.04224 -5.86387,-10.41341 -9.0732,-16.39886 -4.35412,-3.13873 -8.31195,-8.03582 -12.21592,-12.22819 -7.42369,-4.66801 -12.50231,-10.48177 -19.20746,-15.76008 -10.32482,-5.8253 1.83947,-11.37914 6.60407,-3.1452 7.13394,3.10249 15.06092,4.23172 20.00617,11.07667 8.15917,4.93552 12.84299,13.76215 19.8428,20.45504 7.1766,3.17512 14.90538,7.99795 23.72452,5.01913 4.8113,2.41729 15.30678,2.89845 19.64458,-2.44634 1.65333,-5.99692 0.005,-14.10432 -6.88563,-11.98253 2.58909,-4.41544 -8.59308,-0.15786 -11.32755,-4.70453 -3.75677,-0.78824 -5.45081,-6.63213 -8.74381,-9.56028 -3.10788,-5.49405 -5.98268,-9.80622 -10.23055,-15.66471 -4.29507,-10.00644 -7.1622,-20.58586 -9.76245,-31.99454 -6.37125,-4.33139 -21.9725,-16.00121 -19.2091,-21.58928 10.75917,9.25788 28.42931,11.56435 32.97089,27.28764 4.58029,11.88252 6.5042,28.56423 19.62138,33.81304 6.9495,1.16653 14.73955,8.58866 21.23931,6.00549 4.84476,-7.01013 2.31012,-14.92222 -5.25264,-18.24814 -4.07394,-3.65633 -6.60332,-8.93605 -10.75212,-12.53415 -2.96338,-5.61154 -14.15943,-14.54084 -10.91229,-15.30333 -6.92671,-14.34021 -3.66256,-31.10216 -4.74544,-46.6067 2.64917,-7.65209 -1.12882,-27.47609 3.61641,-29.14268 11.15892,8.06558 4.67373,25.00635 6.87154,37.05386 2.44531,8.22223 1.56977,19.74419 5.99836,28.91767 3.75846,8.10437 11.27538,12.9385 15.01665,20.74281 3.5273,3.88337 7.37269,7.38429 11.31802,10.75119 3.759,4.92017 9.66202,-1.85906 10.75752,-4.95535 -9.0262,-6.82232 -5.20488,-19.66268 -6.02382,-29.59288 -1.65862,-12.85438 3.68956,-24.76924 2.90604,-37.45023 4.1414,-6.38903 3.11858,-18.29491 7.22256,-25.65127 -0.60981,-10.50715 10.1045,-23.73461 10.03741,-7.0162 -0.95139,8.89887 -3.98018,10.83433 -4.98389,20.00515 -3.40792,17.00007 -4.52058,35.72177 -3.00206,52.96448 1.37468,5.81138 3.77121,14.22233 9.61291,17.43064 13.29672,-0.62151 3.3341,-9.19208 8.27632,-19.4016 1.2418,-7.88155 2.8852,-15.65399 7.3567,-22.44487 3.07542,-10.00672 7.09253,-20.61878 14.48347,-27.73872 2.97668,-6.24706 10.17619,-12.05191 16.42383,-16.13077 7.56336,-5.69131 15.91597,-6.27366 22.01714,-12.44626 5.8934,-4.9354 2.35907,10.46355 -3.72154,10.69731 -5.35108,3.70979 -10.9501,6.26925 -15.63567,10.17833 -5.44163,5.24031 -11.93344,10.99364 -16.79024,17.71027 -1.48616,9.26266 -6.56497,18.00224 -7.1435,27.7863 0.69765,8.00506 -3.80347,23.02314 1.32793,26.50563 8.32028,-0.12769 15.7102,-1.01525 18.17103,-12.19508 8.3793,-9.73032 16.76492,-19.81145 28.02334,-25.79887 7.36266,-5.03506 14.35446,-10.10513 22.34735,-14.12529 7.73022,-7.16588 17.54889,-10.92956 25.87773,-17.77785 12.13811,-8.90711 -2.95145,16.62452 -9.66409,17.4484 -7.49951,6.93623 -15.6749,12.30061 -24.6964,16.90802 -11.36028,5.26897 -20.6125,14.68334 -25.81812,26.23275 -8.65255,1.91387 -12.03324,15.8337 -1.1089,16.61504 5.97951,4.33909 9.84896,-1.12174 13.7698,-5.24686 3.76946,-5.08839 7.60732,-9.92521 13.15722,-13.0902 3.43473,-5.89642 12.18564,-7.98351 16.12818,-11.56515 3.31761,-1.51505 12.38852,-7.35229 14.71344,-7.96442 6.38695,-1.57625 12.72136,-4.96942 18.39179,-5.61441 6.74895,0.40208 21.02607,-6.10969 23.03381,-3.60179 5.12801,1.3418 20.74095,-7.79025 18.98023,1.31865 -4.95645,6.93828 -14.90075,5.35087 -22.05468,7.06865 -6.44591,1.60298 -16.14584,5.9054 -22.65248,5.35934 -6.79383,4.32234 -13.60002,3.93327 -19.94284,9.43381 -5.9497,1.94766 -8.49304,4.49965 -13.44016,8.45327 -1.37665,6.69147 -9.76491,7.27514 -13.44014,12.53414 -4.02292,2.85869 -6.79394,7.70483 -9.19836,11.8078 -0.64796,1.8023 7.95534,13.89021 10.89606,12.24027 4.79138,-3.89088 11.1905,-4.89644 15.56228,-9.43365 21.769,-4.63487 45.04688,-10.23896 66.90455,-2.53808 14.06802,0.9439 26.08504,10.43452 40.33378,9.49405 8.06323,11.18765 -13.989,9.82958 -20.84546,7.32893 -10.86794,-6.81187 -24.1604,-7.36541 -36.40312,-8.71152 -14.3557,-0.23427 -28.69356,3.34195 -41.78418,9.12037 -4.217,5.48495 -14.80699,1.66865 -15.75441,8.66557 -2.02565,1.1327 1.34571,9.56086 4.72386,14.20332 9.10177,0.37008 14.99205,-1.64511 23.49057,0.29149 5.12613,1.11855 10.34619,1.74157 15.76884,5.12925 8.65914,3.13257 12.19121,13.26328 12.0884,22.40627 2.00462,8.00393 8.12287,15.25197 16.8105,16.2932 5.45915,1.54957 11.08223,3.13171 16.6241,1.48651 11.76867,-1.43231 12.39014,15.97228 0.38576,4.96711 -7.19685,-2.48601 -16.0251,1.66054 -23.81502,-3.29832 -11.16118,-2.26593 -13.83732,-13.9554 -18.63797,-22.50671 -3.01032,-8.48258 -12.83851,-9.77046 -18.02773,-10.37823 -3.56028,-0.9292 -6.72564,-0.67536 -9.69106,1.63563 -2.63965,-4.79184 -10.43995,3.16885 -9.34172,2.70187 -4.8626,0.86653 -5.02736,3.08538 -6.50352,6.63143 -1.75024,3.79224 6.72433,7.48849 11.07393,8.36211 5.48275,2.58523 10.67243,5.30263 15.49919,8.95157 7.97064,4.82006 13.65965,14.68621 20.11374,22.18634 5.39568,7.19459 10.95699,14.778 14.5185,23.19414 4.59842,5.11593 8.53247,13.1468 10.94707,20.46544 2.59147,3.96561 5.95734,18.65081 -1.53452,10.41774 -4.12165,-5.26334 -8.5472,-5.57882 -10.88285,-12.37936 -4.28841,-5.54993 -8.58012,-9.55345 -11.69332,-15.94405 -3.59368,-5.22126 -7.73749,-11.90268 -11.22853,-17.39494 -4.94844,-5.4272 -9.08461,-12.03675 -13.63482,-15.75933 -3.5252,-2.4671 -7.18347,-6.6195 -11.70531,-8.19729 -6.98954,-1.46281 -12.91453,-8.09438 -14.26269,0.14571 -2.468,5.1087 -3.81937,8.18816 -2.97306,12.54421 5.49848,4.50295 10.39684,10.39394 15.95455,15.33885 4.30084,5.19261 6.70414,13.57673 10.19246,19.53303 1.75608,8.82962 4.20171,20.94592 1.44248,30.99519 -1.36629,7.13329 -4.89458,12.58099 -7.08519,18.64603 -6.04014,4.26223 -3.34654,17.17408 -4.36819,24.12876 0.84857,-0.54934 9.09441,13.38012 1.54273,10.39574 -0.93674,-3.80297 -6.74119,-11.60368 -5.44132,-14.44186 -1.8105,-4.09604 -4.23313,-15.82783 0.17288,-18.79587 -0.1857,-7.76351 5.79078,-15.59956 5.02266,-24.18862 1.14493,-5.10274 -2.07723,-13.63836 -3.15915,-19.01025 -1.78833,-7.31124 -4.73706,-8.55513 -7.09696,-13.31596 -0.41944,-4.06751 -3.85822,-2.2637 -6.56446,-7.74767 -8.46663,-8.83087 -16.23013,-0.62834 -17.584,0.60716 -5.36748,-6.47964 -1.56355,6.99417 -0.48447,11.80438 2.16004,4.90725 2.72858,8.17568 3.00427,11.83661 -2.31368,5.76501 -0.10951,17.48665 -3.9399,24.63771 -1.31383,6.9252 -6.42477,13.38015 -6.69461,20.05912 -4.8874,5.91979 -8.06806,16.91858 -9.03104,24.20977 1.37288,6.87165 9.30833,11.46777 10.63065,17.41664 -6.9629,5.11387 -4.32824,6.28539 -13.28119,2.33536 -0.91988,-4.85663 -5.90174,-11.8894 -3.13872,-14.67015 0.35736,-5.26122 -4.56211,-17.83205 -0.46348,-26.62932 2.11893,-1.93979 1.99632,-2.62414 1.97878,-7.68838 5.88309,-3.98514 4.32611,-16.33087 4.7382,-28.09729 -1.82542,0.17363 1.42428,-6.77372 -2.84526,-7.99768 3.99162,-17.7264 -13.93951,-3.86508 -17.514,-2.31875 -3.95254,6.09783 -4.53248,12.06264 -9.54946,17.9072 -4.10531,5.04821 -3.26095,6.16813 -7.92256,13.68487 -4.49419,4.02772 -7.4113,21.07997 -4.56774,20.8551 1.46334,4.55073 -1.03166,13.25333 4.21411,15.18158 4.71098,3.02147 8.65453,3.6109 14.17154,7.21138 5.72504,1.86102 9.09442,5.71576 10.25922,5.65277 -0.57259,5.56424 1.08351,2.2489 0.99694,11.52685 -8.51079,11.84521 -24.06318,-8.25926 -31.99255,-12.29536 z m 26.59469,-1.28945 c -5.74918,-1.86026 -9.14119,-4.55995 -15.62618,-7.33627 -7.14905,-2.45761 -7.23335,-5.32301 -10.10567,-12.12799 2.35865,-4.21237 -3.20529,-15.61227 2.48556,-22.95787 4.63848,-6.42698 5.10561,-12.66073 10.55927,-18.22619 3.9561,-5.50035 6.79071,-11.17301 8.21612,-16.71931 2.37575,-1.83166 2.56004,-10.65554 3.85001,-7.3106 6.66498,-2.65377 9.95257,-3.59311 13.818,-0.8015 2.92497,-1.67133 5.86312,9.80925 2.89543,9.76601 9.62217,3.65545 1.67905,23.48674 2.00546,29.7738 -1.43268,7.00236 -5.04727,5.96146 -3.51397,11.43741 -3.90528,6.7257 -6.55709,18.65275 -0.69483,25.9575 1.19518,5.25376 -3.14915,7.95238 0.96561,9.28627 5.23054,17.61822 8.24681,2.42679 11.26324,6.46368 2.54307,-1.61262 -4.88165,-9.64438 -8.09616,-13.42322 -3.70212,-6.9979 1.48728,-15.20839 4.46364,-23.05966 1.24612,-5.90775 5.85632,-11.42642 7.25099,-18.4352 3.022,-6.0562 4.62983,-13.47566 5.65213,-21.06203 -0.99618,-5.55523 1.93171,-15.28206 -1.30223,-16.3182 0.94542,-6.26179 -1.66385,-11.68562 -3.90615,-15.7625 -3.13905,-1.56591 2.07923,-9.18782 3.87644,-4.24555 4.15661,-1.72978 10.92597,-10.87839 17.14775,-1.73006 3.39484,5.90671 8.6765,5.45465 9.61872,12.2667 3.93876,3.12946 5.82708,8.03572 5.94017,13.16829 3.16858,6.21453 4.03846,15.79028 2.63608,22.80689 -0.61562,9.9151 -6.14656,17.22249 -6.75414,24.85629 -1.74448,3.99786 5.30079,25.23632 4.73432,15.23139 -1.23487,-5.82834 0.25645,-14.84679 2.65372,-20.95674 3.52198,-6.99414 7.35444,-14.02609 9.13722,-22.19778 0.85414,-10.50513 0.9311,-21.77836 -3.56301,-30.32905 -2.54128,-8.19145 -5.88226,-12.87871 -10.15152,-19.65562 -6.75582,-2.98694 -8.14879,-9.91949 -14.37879,-13.10333 -4.82827,-2.59859 1.50907,-8.02448 -0.21155,-10.216 4.24058,1.20108 1.75239,-9.92324 7.83651,-8.1562 2.57814,1.12044 7.65399,2.10066 11.47798,4.37363 2.41876,0.5743 7.17271,5.11793 10.74261,7.86304 4.84525,4.1063 8.80683,9.55167 13.06534,14.95556 5.10027,6.52399 9.16571,14.53449 13.94626,20.50984 3.91548,6.05279 7.98497,11.64466 11.87452,17.4797 2.84299,3.95054 9.32821,8.16363 11.38753,11.34218 2.14987,-7.80907 -4.97211,-16.14873 -6.98538,-23.81451 -2.67767,-4.61816 -8.00856,-9.41779 -8.29463,-13.6227 -2.94306,-4.5039 -6.94334,-11.1375 -9.60844,-14.27453 -5.98592,-7.85426 -12.14113,-16.26307 -19.31204,-23.67066 -3.30808,-1.04604 -8.50587,-5.9606 -12.4289,-7.76171 -5.62742,-3.73265 -12.72825,-4.28522 -17.51116,-8.73901 -0.98769,-5.44428 0.89667,-10.08214 6.11571,-10.85239 3.98696,-4.93379 10.26336,-4.42836 13.15654,-4.44268 2.68491,-3.1464 6.17228,0.035 9.96562,-0.38978 7.04198,1.59539 17.13493,7.51845 18.04075,17.33795 4.14381,8.90273 10.91303,16.21408 21.1568,17.58972 6.47164,3.65299 19.76175,-1.30267 8.1585,-1.69312 -9.11007,-1.19747 -19.95802,-4.24848 -22.89271,-14.14765 -2.72528,-8.8804 -2.4329,-20.22657 -11.03621,-25.35944 -6.09636,-3.63141 -12.13235,-4.625 -18.42217,-6.2023 -8.61084,-1.72758 -22.17682,3.17923 -26.82061,-2.08869 4.10524,-3.88105 -8.54284,-17.12444 -1.50699,-13.9946 0.47262,-6.14306 11.54099,-2.99232 15.49155,-7.73841 11.4213,-5.74683 24.64859,-8.95646 37.4108,-9.38353 12.08201,-1.55106 24.88836,2.06576 36.7223,5.59414 7.79368,4.16397 22.79734,8.76182 27.40141,-0.39551 -5.87905,-5.09794 -18.19099,-3.51637 -26.41109,-8.05775 -13.86865,-4.84214 -28.77685,-8.31927 -43.59752,-8.02805 -13.45959,2.04695 -28.66517,1.98146 -40.7218,8.31954 -4.30687,3.71685 -11.16768,4.68148 -14.63751,8.89959 -5.53093,-3.95379 -7.55215,-8.36718 -11.56485,-12.98044 0.26502,-4.44352 6.44599,-7.03772 7.52884,-11.78757 5.05944,-4.01773 9.99326,-7.76625 15.42081,-11.24027 1.93105,-6.27063 8.10296,-9.79422 13.86459,-11.36819 5.13528,-3.57476 10.47814,-6.57073 15.66584,-7.14156 6.00422,-3.11706 11.04631,-3.31267 17.40883,-5.04617 6.28999,-2.74778 10.96227,-3.00317 16.8269,-4.01341 4.70944,0.0673 19.92992,-3.86278 13.62653,-8.7322 -4.22067,1.34141 -11.74074,1.63154 -14.66703,1.63393 -6.2484,1.19004 -10.92794,2.45434 -16.98517,3.76941 -5.07386,1.2949 -13.38036,1.4625 -19.01692,4.18058 -6.34714,2.7183 -12.29845,4.07468 -18.24127,8.09171 -5.19516,5.57179 -14.67476,6.26067 -19.09285,12.94175 -4.90353,3.75909 -9.65522,7.57781 -12.99555,12.97138 -3.73372,3.29187 -6.22275,8.46941 -11.63786,8.74471 -3.98828,-3.67894 -3.59696,0.68159 -7.77605,-5.12799 -9.99343,-2.46908 2.34492,-14.89436 6.23604,-18.27459 6.07015,-11.72226 16.50301,-19.52116 27.87114,-25.28287 10.91263,-4.36509 18.79395,-13.59938 28.15358,-20.5482 7.46687,-5.50206 10.70959,-20.04292 0.51073,-7.72025 -10.11427,5.10541 -17.75026,12.06624 -27.49781,17.48099 -7.27646,4.1923 -13.76498,9.6509 -21.12737,14.00012 -10.17095,6.43818 -18.4001,15.99343 -25.73568,25.77052 -0.14403,13.18399 -14.13174,7.13616 -17.88385,10.29777 -3.04816,12.99741 -3.19026,-6.81075 -1.87019,-12.67011 -0.47469,-12.81092 1.88237,-24.84696 5.82366,-36.79888 1.72667,-8.16927 9.73449,-14.81291 13.91237,-21.05626 5.94488,-2.83134 11.09704,-8.65279 16.08782,-10.94695 2.17466,0.25753 13.222,-9.46568 6.41146,-5.20152 -3.59101,-2.86491 8.01374,-1.56363 4.36404,-8.04514 -3.16055,4.09101 -9.22418,6.8596 -15.36658,9.09698 -9.5408,4.25026 -17.0258,11.34737 -24.00061,18.61967 -2.08599,5.24765 -7.97906,9.6698 -9.78866,16.06785 -4.00255,8.0421 -6.00276,17.02004 -10.73721,24.82869 1.28144,7.71096 -7.85848,22.07968 -1.61618,26.7415 -4.55516,5.17161 -12.64329,6.0855 -15.13212,-1.72511 -8.18411,-14.82503 -3.96064,-32.84608 -4.10439,-49.2621 3.33137,-8.66382 0.77332,-19.26483 6.05061,-25.89835 -2.27805,-2.14747 6.05918,-12.51469 -0.23202,-17.75207 -5.68169,1.43196 -5.65526,16.44165 -9.23813,22.82194 -0.64525,10.0399 -5.42169,16.95899 -4.7242,26.1915 -4.05598,16.13888 -3.38291,33.44998 -2.32966,50.04516 1.71549,5.39842 8.74302,9.19616 3.27875,13.27959 -5.27319,4.98901 -9.66259,1.27324 -13.88939,-2.81017 -5.26903,-3.94493 -8.44134,-9.61824 -12.16688,-14.86607 -10.67809,-9.18514 -15.36532,-24.57596 -14.57197,-38.76841 -5.58581,-10.21508 2.75024,-27.54013 -5.50736,-37.96797 -7.49191,-6.23429 -2.20282,19.81934 -5.33586,26.6398 1.26402,14.5317 -1.94523,29.99523 3.91093,43.68376 1.73284,6.48793 6.63553,10.81857 10.75213,15.44905 3.0162,4.83513 7.63342,8.29888 10.46919,13.40863 5.66627,3.57533 13.37244,9.03856 7.78114,16.75806 -0.9032,8.52802 -11.85514,2.55138 -16.6941,-0.10243 -9.72405,-1.83498 -17.79547,-8.53968 -20.51162,-18.60935 -5.06081,-12.26971 -6.75759,-29.2126 -21.30144,-34.23114 -7.55642,-3.06783 -26.23917,-17.91201 -11.6543,-2.46657 13.49177,7.80067 17.34853,20.74719 20.8317,34.33848 1.60502,8.74701 5.70015,10.99877 7.37954,16.19124 3.77292,3.72518 6.6414,10.97741 11.39149,15.81342 3.11319,5.66036 14.21226,4.41926 15.7745,7.10752 3.80246,-1.49092 8.56808,4.95134 5.9266,10.15097 0.55578,10.77336 -13.51981,6.8395 -20.5693,7.51828 -4.93007,-1.52752 -18.55152,-0.21019 -25.01027,-7.08903 -6.31596,-7.09508 -11.33929,-15.0269 -19.13004,-20.05915 -5.19934,-7.25135 -13.97519,-7.4869 -21.16053,-11.47449 -12.48295,-9.70875 -6.29101,4.55435 2.48578,8.89144 4.92342,3.70321 10.85075,7.72736 15.2594,12.57965 4.09338,4.1175 8.7946,8.83036 12.91586,12.99166 3.03329,4.77261 6.36748,9.67036 7.90096,12.03019 0.84268,3.20525 5.89186,7.86739 7.8241,4.95536 3.18372,4.97841 13.2194,-1.78728 10.70918,1.31172 5.14362,0.69803 9.53125,-1.02339 14.23501,-0.16737 9.68436,-6.27964 21.64445,4.89501 12.92825,14.17171 -10.50913,3.28933 -22.17371,5.63692 -32.20142,4.08138 -8.78982,-8.41314 -20.31237,-5.72563 -30.47601,-9.19522 -10.26325,-5.33729 -26.33275,-8.68759 -33.23941,2.5798 6.08164,12.76797 14.72904,-14.53818 26.24023,-1.57005 6.70313,3.714 13.67874,6.88649 21.29204,10.06694 7.08997,5.51615 17.28059,5.67456 22.91902,13.071 11.19824,2.19833 23.55223,1.9921 33.40724,-4.76762 5.31738,-4.6274 8.16797,3.71786 10.72314,7.43437 0.83589,5.50417 -6.12225,10.634 -10.1763,14.28607 -9.11749,6.73468 -20.24295,3.38667 -30.98081,2.21744 -13.62416,-0.75836 -31.56361,-1.35177 -39.27719,12.49059 -6.14536,5.28718 -9.28437,26.14567 -0.55755,11.1681 3.01546,-9.97486 12.73579,-12.69383 20.09659,-16.24158 4.29898,0.47573 14.3334,-1.81276 19.72389,1.29818 7.28716,-0.35072 13.11859,1.67563 20.0972,1.88582 10.08431,1.84577 5.20063,4.6008 12.07461,2.24778 2.85144,-1.597 11.13222,-6.20521 15.50447,-10.11099 5.32019,-7.77501 16.13935,2.92369 14.72196,2.69633 1.24846,5.43374 -4.30323,18.11393 -12.35467,21.78899 -12.46759,4.89704 -28.36643,1.3133 -37.22811,13.74869 -9.75789,10.23712 -6.63432,25.65362 -12.24724,37.73511 10.05357,4.36554 5.00638,-25.6966 11.72974,-30.97529 1.75613,-8.2404 13.00624,-13.78509 18.59881,-13.34501 5.50666,-3.77225 11.15134,-0.13005 16.50943,-1.62525 4.06447,1.02251 7.25171,0.71176 11.0066,-0.78622 6.96028,3.41793 9.02109,-7.09406 14.34585,-7.67691 4.24078,-12.79985 13.3825,-13.3516 14.79446,-10.2759 6.45743,-7.02027 6.96144,10.94944 8.28292,14.36675 1.54987,3.54761 -1.70897,13.37454 -4.72824,16.20263 -0.6121,8.92718 -7.21667,13.90251 -10.13598,22.30812 -0.51263,3.35439 -2.57078,7.91747 0.33082,8.34659 -5.47078,1.86354 -0.57329,10.35241 -0.98185,13.06628 -1.70655,-3.19621 -2.98192,3.22156 -0.72122,4.59567 3.6981,0.65585 5.88804,12.94772 8.33149,8.40925 4.81461,-0.73015 5.15284,9.98465 11.9459,9.87166 5.77951,1.19466 4.79859,3.18272 6.58268,5.68698 8.78737,1.86842 11.67712,-8.7934 4.76463,-15.90605 z m 72.14489,-7.2185 c 0.73916,-0.0946 -5.83501,-10.74912 -3.61366,-3.49377 0.26767,0.85894 2.76037,6.87703 3.61366,3.49377 z m -4.95814,-75.43662 c -0.87884,-1.05714 -0.53696,1.46777 0,0 z m 85.57864,-52.3118 c -2.37322,-10.79554 -18.34002,-2.78718 -4.30614,-1.33463 -0.01,2.18904 3.91085,4.06124 4.30614,1.33463 z m -12.13275,-4.19955 c 1.60113,-5.39039 -2.61926,2.02832 0,0 z"
       id="path4147-3"
       inkscape:connector-curvature="0"
       sodipodi:nodetypes="ccccccccccccccccccccccccccccccccccccccccccccccccccccccccccccccccccccccccccccccccccccccccccccccccccccccccccccccccccccccccccccccccccccccccccccccccccccccccccccccccccccccccccccccccccccccccccccccccccccccccccccccccccccccccccccccccccccccccccccccccccccccccccccccccccccccccccccccccccccccccccccccccccccccccccccccccccccccccccccccccccccccccccccccccccccccccccccccccccccccc" />
  </g>
</svg>
