<?xml version="1.0" encoding="UTF-8" standalone="no"?>
<!-- Created with Inkscape (http://www.inkscape.org/) -->

<svg
   xmlns:dc="http://purl.org/dc/elements/1.1/"
   xmlns:cc="http://creativecommons.org/ns#"
   xmlns:rdf="http://www.w3.org/1999/02/22-rdf-syntax-ns#"
   xmlns:svg="http://www.w3.org/2000/svg"
   xmlns="http://www.w3.org/2000/svg"
   xmlns:sodipodi="http://sodipodi.sourceforge.net/DTD/sodipodi-0.dtd"
   xmlns:inkscape="http://www.inkscape.org/namespaces/inkscape"
   width="106.314mm"
   height="104.31741mm"
   viewBox="0 0 376.70314 369.62863"
   id="svg2"
   version="1.1"
   inkscape:version="0.91 r13725"
   sodipodi:docname="sun_v4_face.svg">
  <defs
     id="defs4">
    <inkscape:path-effect
       effect="skeletal"
       id="path-effect4188"
       is_visible="true"
       pattern="m 164.50555,339.69075 c 0,-2.76 2.24,-5 5,-5 2.76,0 5,2.24 5,5 0,2.76 -2.24,5 -5,5 -2.76,0 -5,-2.24 -5,-5 z"
       copytype="single_stretched"
       prop_scale="1"
       scale_y_rel="false"
       spacing="0"
       normal_offset="0"
       tang_offset="0"
       prop_units="false"
       vertical_pattern="false"
       fuse_tolerance="0" />
  </defs>
  <sodipodi:namedview
     id="base"
     pagecolor="#ffffff"
     bordercolor="#666666"
     borderopacity="1.0"
     inkscape:pageopacity="0.0"
     inkscape:pageshadow="2"
     inkscape:zoom="1.4"
     inkscape:cx="183.16521"
     inkscape:cy="153.39584"
     inkscape:document-units="px"
     inkscape:current-layer="layer1"
     showgrid="false"
     fit-margin-top="0"
     fit-margin-left="0"
     fit-margin-right="0"
     fit-margin-bottom="0"
     inkscape:window-width="1280"
     inkscape:window-height="967"
     inkscape:window-x="0"
     inkscape:window-y="0"
     inkscape:window-maximized="1" />
  <metadata
     id="metadata7">
    <rdf:RDF>
      <cc:Work
         rdf:about="">
        <dc:format>image/svg+xml</dc:format>
        <dc:type
           rdf:resource="http://purl.org/dc/dcmitype/StillImage" />
        <dc:title />
      </cc:Work>
    </rdf:RDF>
  </metadata>
  <g
     inkscape:label="Layer 1"
     inkscape:groupmode="layer"
     id="layer1"
     transform="translate(-164.50557,-334.69075)">
    <path
       style="fill:#000000;stroke:#000000;stroke-width:1;stroke-miterlimit:4;stroke-dasharray:none;stroke-opacity:1"
       d="m 332.52262,683.7304 c -1.59611,1.21048 -3.63621,-6.19311 -6.61775,-6.72704 0.19301,-1.78474 -5.48405,-16.89503 0.43845,-11.21439 -4.75835,-5.99946 0.79135,-10.85555 0.46169,-16.41666 1.75259,-4.50223 5.52115,-11.16797 9.57139,-17.63801 5.14581,-11.96356 10.51626,-26.38034 3.59134,-32.93669 2.14722,-6.49843 -2.84099,-8.92995 -3.71291,-2.34426 -3.01522,0.93212 -1.87767,-4.95049 -3.95858,-3.675 -5.40539,1.87621 -10.67833,7.97041 -10.98712,11.29976 -6.04744,2.45075 -7.76354,8.54161 -14.27626,9.90124 -5.12498,-4.17968 -9.18218,3.91057 -12.4632,-0.87591 -4.62215,1.13239 -10.26314,-0.0874 -16.00125,0 -6.34939,3.63689 -19.84934,3.14238 -19.46904,13.68915 -3.36644,-3.98181 -7.65584,16.35518 -8.05357,21.71905 4.09981,12.9879 -14.26662,18.98905 -6.40495,3.35784 4.69363,-11.69022 2.12171,-25.48686 13.11077,-34.414 10.62984,-9.98409 25.36325,-6.68248 38.00368,-11.77881 7.86769,-3.02258 11.71563,-14.93137 12.53034,-18.42735 -0.25386,-4.33422 -6.34776,-6.80601 -12.08034,-7.14588 -3.7342,4.24744 -7.83814,5.35827 -10.80332,8.69724 -2.44609,1.57764 -5.52714,2.30254 -10.17783,5.36917 -6.11603,0.52783 -5.09127,-2.82829 -12.63966,-3.87936 -5.09815,-0.90939 -11.95773,-1.44627 -15.99855,-2.14423 -7.52454,-0.4166 -17.55118,-2.42519 -23.73066,-0.99273 -3.73448,1.86092 -10.5819,2.93438 -15.76651,7.35 -1.65464,7.28024 -17.29497,23.54919 -12.35449,7.2976 4.99485,-17.42618 21.27519,-25.70762 38.5038,-24.37412 13.16677,-0.75869 27.0732,5.55729 39.11692,-0.0496 5.40745,-3.85374 12.78987,-8.82558 13.20348,-15.50196 -2.73045,-8.22246 -10.49068,-8.95544 -17.10348,-3.97182 -7.31345,5.0174 -15.32424,1.27379 -20.92364,3.75009 -7.05925,-1.02056 -8.9474,-1.43214 -13.54882,-7.0118 -12.97337,-4.46123 -24.45228,-12.03744 -37.51885,-16.10692 -6.98333,-6.72106 -20.67461,-8.34846 -24.52315,2.90505 -17.86441,-0.13991 0.8922,-17.56208 10.17242,-13.42526 13.67515,2.54123 25.50161,8.96345 39.24202,8.35998 10.11042,7.49733 22.37977,6.54956 34.51614,3.49857 10.41094,2.01844 17.44865,-5.89467 9.47723,-13.60361 -2.76136,-3.28419 -16.59371,-0.61996 -27.93663,-0.17672 -5.97214,-2.97521 -12.27445,3.80227 -14.55674,-1.56624 -6.21858,0.651 -4.81053,-6.83316 -7.46349,-5.00434 1.01588,-6.2186 -6.21721,-10.71737 -9.61992,-16.87754 -4.61648,-3.23033 -8.81279,-8.27036 -12.95199,-12.5851 -7.87101,-4.80426 -13.25564,-10.78772 -20.36481,-16.2201 -10.94695,-5.99533 1.9503,-11.71127 7.00199,-3.237 7.5638,3.19305 15.96842,4.35525 21.21165,11.4 8.65081,5.07956 13.61685,14.16383 21.03844,21.05208 7.60901,3.26781 15.80351,8.2314 25.15405,5.16563 5.10119,2.48785 16.22908,2.98305 20.82826,-2.51775 1.75295,-6.17196 0.005,-14.516 -7.30052,-12.33228 2.74509,-4.54431 -9.11087,-0.16246 -12.0101,-4.84185 -3.98314,-0.81125 -5.77925,-6.82572 -9.27068,-9.83934 -3.29515,-5.6544 -6.34317,-10.09244 -10.84699,-16.12194 -4.55386,-10.2985 -7.59375,-21.18672 -10.35068,-32.9284 -6.75515,-4.45782 -23.29645,-16.46827 -20.36655,-22.21945 11.40746,9.52811 30.14231,11.9019 34.95755,28.08413 4.85628,12.22935 6.89611,29.39798 20.80368,34.8 7.36824,1.20057 15.62768,8.83935 22.51908,6.18078 5.1367,-7.21474 2.44932,-15.35777 -5.56913,-18.78078 -4.31942,-3.76306 -7.0012,-9.19687 -11.4,-12.9 -3.14193,-5.77534 -15.0126,-14.96527 -11.5698,-15.75 -7.34409,-14.7588 -3.88326,-32.01001 -5.03139,-47.96709 2.8088,-7.87545 -1.19684,-28.2781 3.83432,-29.99333 11.83131,8.30101 4.95534,25.73625 7.28558,38.13542 2.59266,8.46221 1.66436,20.32049 6.3598,29.76173 3.98493,8.34092 11.95478,13.31616 15.92148,21.34826 3.73984,3.99673 7.81693,7.59984 12,11.06501 3.98549,5.06378 10.2442,-1.91332 11.40571,-5.1 -9.57008,-7.02145 -5.5185,-20.23659 -6.38679,-30.45665 -1.75855,-13.22958 3.91188,-25.4922 3.08115,-38.54335 4.39094,-6.57552 3.3065,-18.82892 7.65776,-26.4 -0.64656,-10.81384 10.71335,-24.42739 10.64221,-7.221 -1.00871,9.15862 -4.22,11.15058 -5.28419,20.58908 -3.61327,17.49628 -4.79297,36.76445 -3.18295,54.51045 1.45751,5.981 3.99845,14.63746 10.19214,17.93941 14.09791,-0.63965 3.53499,-9.46038 8.775,-19.96791 1.31664,-8.1116 3.05907,-16.11091 7.8,-23.1 3.26073,-10.29881 7.51988,-21.22062 15.35617,-28.54837 3.15604,-6.42941 10.78935,-12.4037 17.41345,-16.60161 8.0191,-5.85744 16.875,-6.45679 23.3438,-12.80956 6.2485,-5.07945 2.5012,10.76897 -3.9458,11.00956 -5.6735,3.81807 -11.6099,6.45225 -16.5778,10.47541 -5.7695,5.39328 -12.6525,11.31455 -17.80193,18.22721 -1.57572,9.53303 -6.96055,18.52772 -7.57394,28.59735 0.73969,8.23871 -4.03265,23.69517 1.40794,27.2793 8.82163,-0.13142 16.65683,-1.04489 19.26593,-12.55104 8.8842,-10.01434 17.7751,-20.38971 29.7119,-26.55191 7.8063,-5.18203 15.2194,-10.40008 23.6939,-14.53759 8.196,-7.37503 18.6063,-11.24858 27.437,-18.29675 12.8695,-9.16711 -3.1293,17.10977 -10.2464,17.95769 -7.9514,7.13869 -16.6194,12.65965 -26.1845,17.40155 -12.0448,5.42275 -21.8545,15.11192 -27.3738,26.99845 -9.1739,1.96974 -12.7583,16.29586 -1.1757,17.1 6.3398,4.46575 10.4424,-1.15448 14.5995,-5.4 3.9966,-5.23691 8.0657,-10.21492 13.95,-13.47228 3.6417,-6.06855 12.9199,-8.21655 17.1,-11.90273 3.5175,-1.55927 13.135,-7.5669 15.6,-8.19689 6.7718,-1.62226 13.4879,-5.11447 19.5,-5.7783 7.1556,0.41383 22.293,-6.28802 24.4217,-3.7069 5.437,1.38096 21.9907,-8.01766 20.1239,1.35713 -5.2551,7.1408 -15.7986,5.50705 -23.3836,7.27498 -6.8343,1.64976 -17.1187,6.07776 -24.0174,5.51575 -7.2032,4.44852 -14.4195,4.04809 -21.1445,9.70919 -6.3082,2.00451 -9.0048,4.63099 -14.25,8.7 -1.4596,6.88679 -10.3533,7.48749 -14.25,12.9 -4.2653,2.94213 -7.2033,7.92971 -9.7526,12.15245 -0.687,1.85491 8.4347,14.29565 11.5526,12.59755 5.0801,-4.00445 11.8648,-5.03936 16.5,-9.70901 23.0807,-4.77016 47.7612,-10.53781 70.9359,-2.61216 14.9157,0.97145 27.6568,10.73908 42.7641,9.77117 8.5491,11.51421 -14.8319,10.11649 -22.1015,7.54284 -11.5228,-7.01068 -25.6162,-7.5804 -38.5966,-8.96579 -15.2207,-0.24111 -30.4225,3.4395 -44.3019,9.38658 -4.4711,5.64506 -15.6992,1.71736 -16.7037,8.91852 -2.1477,1.16575 1.4268,9.83992 5.0085,14.61789 9.6502,0.38087 15.8954,-1.69313 24.906,0.3 5.435,1.15119 10.9696,1.7924 16.719,5.27896 9.1809,3.22401 12.9258,13.65042 12.8168,23.06028 2.1254,8.23755 8.6123,15.69715 17.8234,16.76877 5.7881,1.5948 11.75,3.22312 17.6258,1.52991 12.4778,-1.47413 13.1367,16.43849 0.409,5.11209 -7.6305,-2.55857 -16.9907,1.70901 -25.25,-3.39459 -11.8337,-2.33207 -14.6711,-14.36275 -19.761,-23.16366 -3.1917,-8.73017 -13.6121,-10.05565 -19.114,-10.68114 -3.7748,-0.95632 -7.1309,-0.6951 -10.275,1.68336 -2.7987,-4.9317 -11.069,3.26134 -9.9046,2.78073 -5.1556,0.89183 -5.3303,3.17545 -6.8954,6.825 -1.8557,3.90293 7.1295,7.70707 11.7412,8.60619 5.8131,2.66069 11.3155,5.4574 16.4331,9.21285 8.4509,4.96075 14.4827,15.11488 21.3257,22.83393 5.7208,7.40459 11.6172,15.20935 15.3933,23.87115 4.8755,5.26526 9.0466,13.53053 11.6067,21.06279 2.7476,4.08135 6.3163,19.19521 -1.627,10.72182 -4.37,-5.41696 -9.0622,-5.74165 -11.5386,-12.7407 -4.5468,-5.71193 -9.0971,-9.83229 -12.3979,-16.40943 -3.8102,-5.37365 -8.2037,-12.25009 -11.9051,-17.90267 -5.2466,-5.58562 -9.632,-12.3881 -14.4564,-16.21932 -3.7376,-2.53912 -7.6163,-6.81273 -12.4106,-8.43657 -7.4107,-1.5055 -13.6927,-8.33065 -15.1221,0.14996 -2.6167,5.25783 -4.0495,8.42717 -3.1522,12.91038 5.8298,4.63438 11.0233,10.69731 16.9159,15.78654 4.56,5.34419 7.1081,13.97305 10.8066,20.10318 1.8619,9.08736 4.4549,21.55732 1.5294,31.8999 -1.4486,7.3415 -5.1895,12.94821 -7.5121,19.19029 -6.4041,4.38663 -3.5482,17.67537 -4.6314,24.83304 0.8997,-0.56538 9.6424,13.77067 1.6357,10.69919 -0.9932,-3.91397 -7.1474,-11.94239 -5.7692,-14.86341 -1.9196,-4.21558 -4.4882,-16.28982 0.1833,-19.34448 -0.1969,-7.99012 6.1397,-16.05491 5.3253,-24.89467 1.2139,-5.25167 -2.2024,-14.03645 -3.3495,-19.56513 -1.8961,-7.52464 -5.0225,-8.80484 -7.5246,-13.70463 -0.4447,-4.18624 -4.0907,-2.32978 -6.96,-7.97382 -8.9768,-9.08864 -17.20808,-0.64667 -18.64353,0.62488 -5.6909,-6.66877 -1.65777,7.19831 -0.51367,12.14894 2.2902,5.05049 2.893,8.41432 3.1853,12.1821 -2.4531,5.93328 -0.1161,17.99706 -4.1773,25.35685 -1.393,7.12734 -6.8119,13.7707 -7.098,20.64462 -5.1819,6.09258 -8.5542,17.41241 -9.5752,24.91644 1.4556,7.07221 9.8692,11.80249 11.2712,17.925 -7.38245,5.26313 -4.58904,6.46885 -14.08146,2.40352 -0.9753,-4.99839 -6.25734,-12.23644 -3.32784,-15.09835 0.3789,-5.41479 -4.837,-18.35255 -0.4914,-27.4066 2.2466,-1.99641 2.1166,-2.70073 2.098,-7.91278 6.23758,-4.10147 4.58678,-16.80756 5.0237,-28.91743 -1.9354,0.17871 1.5101,-6.97143 -3.0167,-8.23112 4.23213,-18.2438 -14.77943,-3.9779 -18.5693,-2.38643 -4.1907,6.27582 -4.8056,12.41474 -10.12487,18.42989 -4.35268,5.19557 -3.45745,6.34816 -8.39994,14.08432 -4.76499,4.14528 -7.85787,21.69526 -4.84296,21.46383 1.55151,4.68356 -1.09384,13.64018 4.46802,15.62472 4.99484,3.10965 9.17601,3.71629 15.02545,7.42185 6.07,1.91535 9.6424,5.8826 10.8774,5.81778 -0.6071,5.72665 1.1488,2.31453 1.057,11.8633 -9.02361,12.19096 -25.51311,-8.50034 -33.92026,-12.65425 z m 28.19716,-1.32709 c -6.0956,-1.91456 -9.69199,-4.69305 -16.56775,-7.5504 -7.57981,-2.52935 -7.66919,-5.47839 -10.71459,-12.48199 2.50078,-4.33533 -3.39842,-16.06798 2.63533,-23.62799 4.91797,-6.61458 5.41325,-13.03027 11.19552,-18.75817 4.19449,-5.66092 7.19989,-11.49915 8.71119,-17.20734 2.5189,-1.88512 2.7143,-10.96656 4.082,-7.52397 7.06658,-2.73125 10.55227,-3.698 14.6506,-0.82491 3.10123,-1.72011 6.2164,10.09557 3.0699,10.05108 10.20195,3.76215 1.78022,24.17228 2.1263,30.64285 -1.519,7.20675 -5.3514,6.13546 -3.7257,11.77125 -4.1406,6.92202 -6.9522,19.19719 -0.7367,26.71516 1.2672,5.40712 -3.3389,8.18451 1.0238,9.55733 5.5457,18.13247 8.74371,2.49762 11.9419,6.65234 2.6963,-1.65968 -5.1758,-9.92588 -8.584,-13.81503 -3.9252,-7.20215 1.5769,-15.65229 4.7326,-23.73273 1.3212,-6.08018 6.2092,-11.75994 7.6879,-18.9733 3.2041,-6.23297 4.9088,-13.869 5.9927,-21.6768 -1.0562,-5.71739 2.0481,-15.72813 -1.3807,-16.79451 1.0024,-6.44456 -1.7641,-12.02671 -4.1415,-16.22259 -3.3282,-1.61162 2.2045,-9.45599 4.11,-4.36947 4.40707,-1.78027 11.58432,-11.19591 18.181,-1.78056 3.5994,6.07914 9.1993,5.61387 10.1983,12.62475 4.1761,3.22081 6.1782,8.27027 6.2981,13.55265 3.3595,6.39592 4.2818,16.25118 2.7949,23.4726 -0.6527,10.20451 -6.5169,17.7252 -7.1611,25.58182 -1.8496,4.11455 5.6202,25.97292 5.0196,15.67596 -1.3093,-5.99846 0.2719,-15.28014 2.8136,-21.56843 3.7342,-7.19829 7.7976,-14.4355 9.6878,-22.84571 0.9056,-10.81176 0.9872,-22.41404 -3.7777,-31.21431 -2.6944,-8.43056 -6.2367,-13.25462 -10.7632,-20.22933 -7.1629,-3.07415 -8.6398,-10.20903 -15.2452,-13.48581 -5.1192,-2.67444 1.6,-8.2587 -0.2243,-10.51419 4.4961,1.23613 1.858,-10.21288 8.3087,-8.39427 2.7335,1.15314 8.1152,2.16197 12.1696,4.50128 2.5645,0.59107 7.6049,5.26732 11.3899,8.09256 5.1372,4.22617 9.3375,9.83048 13.8526,15.3921 5.4076,6.71441 9.718,14.95872 14.7866,21.10848 4.1514,6.22947 8.4661,11.98457 12.59,17.98992 3.0143,4.06584 9.8903,8.40191 12.0737,11.67324 2.2794,-8.037 -5.2717,-16.62008 -7.4063,-24.50962 -2.839,-4.75295 -8.4911,-9.69269 -8.7944,-14.02034 -3.1204,-4.63537 -7.3617,-11.46257 -10.1874,-14.69118 -6.3466,-8.08351 -12.8727,-16.73777 -20.4757,-24.36156 -3.5074,-1.07657 -9.0184,-6.13459 -13.1778,-7.98828 -5.9665,-3.84159 -13.4952,-4.41029 -18.5663,-8.99408 -1.0472,-5.60319 0.9507,-10.37643 6.4842,-11.16916 4.2272,-5.0778 10.8818,-4.55762 13.9493,-4.57236 2.8467,-3.23824 6.5442,0.0361 10.5661,-0.40116 7.4663,1.64196 18.1674,7.73791 19.1278,17.84402 4.3935,9.1626 11.5706,16.68736 22.4316,18.10314 6.8616,3.75962 20.9525,-1.34068 8.6501,-1.74253 -9.659,-1.23242 -21.1606,-4.3725 -24.2721,-14.56061 -2.8895,-9.1396 -2.5795,-20.81694 -11.7012,-26.09964 -6.4637,-3.7374 -12.8634,-4.76 -19.5322,-6.38333 -9.1297,-1.77801 -23.5131,3.27203 -28.4367,-2.14966 4.3526,-3.99434 -9.0576,-17.62428 -1.5978,-14.40308 0.5011,-6.32238 12.2364,-3.07968 16.425,-7.96429 12.1095,-5.91457 26.1338,-9.21789 39.665,-9.65742 12.81,-1.59635 26.388,2.12605 38.935,5.75742 8.2633,4.28551 24.171,9.01756 29.0525,-0.40705 -6.2333,-5.24674 -19.2871,-3.619 -28.0025,-8.29295 -14.7043,-4.98348 -30.5108,-8.5621 -46.2245,-8.26238 -14.2706,2.10671 -30.3924,2.0393 -43.1755,8.56238 -4.5664,3.82534 -11.8406,4.81812 -15.5195,9.15936 -5.8642,-4.0692 -8.0072,-8.61141 -12.2617,-13.35933 0.281,-4.57322 6.8344,-7.24313 7.9825,-12.13162 5.3643,-4.13501 10.5954,-7.99295 16.35,-11.56838 2.0474,-6.45364 8.5912,-10.08008 14.7,-11.7 5.4447,-3.6791 11.1095,-6.76252 16.6098,-7.35 6.366,-3.20805 11.7119,-3.40938 18.4578,-5.19348 6.669,-2.82798 11.6228,-3.09081 17.8408,-4.13054 4.9932,0.0692 21.1308,-3.97554 14.4476,-8.98708 -4.475,1.38055 -12.4482,1.67915 -15.5508,1.68161 -6.6249,1.22478 -11.5864,2.52598 -18.0086,3.87944 -5.3796,1.33269 -14.1866,1.5052 -20.1628,4.30261 -6.7296,2.79764 -13.0395,4.19361 -19.3404,8.32789 -5.5082,5.73443 -15.559,6.44342 -20.2433,13.3195 -5.199,3.86881 -10.237,7.799 -13.7786,13.35 -3.9587,3.38795 -6.5977,8.71661 -12.3391,8.99996 -4.2286,-3.78633 -3.8137,0.70148 -8.2446,-5.27768 -10.5956,-2.54113 2.4862,-15.3291 6.6118,-18.80799 6.4359,-12.06441 17.4974,-20.09096 29.5505,-26.02084 11.5702,-4.49251 19.9264,-13.99633 29.85,-21.14798 7.9168,-5.66265 11.3549,-20.62795 0.5415,-7.94559 -10.7237,5.25443 -18.8198,12.41843 -29.1547,17.99123 -7.7149,4.31467 -14.5944,9.9326 -22.4004,14.40877 -10.7838,6.6261 -19.5088,16.46025 -27.2864,26.52273 -0.1527,13.56881 -14.98325,7.34445 -18.96145,10.59835 -3.23182,13.37678 -3.38248,-7.00954 -1.98288,-13.03994 -0.50328,-13.18485 1.9958,-25.57221 6.17457,-37.873 1.8307,-8.40771 10.32106,-15.24526 14.75066,-21.67086 6.3031,-2.91397 11.7657,-8.90536 17.0572,-11.26647 2.3057,0.26505 14.0187,-9.74196 6.7978,-5.35335 -3.8074,-2.94853 8.4966,-1.60927 4.627,-8.27997 -3.351,4.21043 -9.78,7.05982 -16.2925,9.36251 -10.1157,4.37432 -18.0517,11.6786 -25.44678,19.16316 -2.21169,5.40082 -8.45984,9.95204 -10.37849,16.53684 -4.24371,8.27685 -6.36445,17.51684 -11.38418,25.55342 1.35866,7.93602 -8.332,22.72414 -1.71355,27.52204 -4.82963,5.32256 -13.40512,6.26312 -16.04392,-1.77546 -8.67725,-15.25776 -4.19929,-33.80481 -4.35171,-50.7 3.53211,-8.91671 0.81992,-19.82715 6.4152,-26.65428 -2.41532,-2.21016 6.42428,-12.87998 -0.246,-18.27024 -6.02405,1.47378 -5.99603,16.92156 -9.79478,23.48808 -0.68412,10.33297 -5.74837,17.45401 -5.00886,26.956 -4.30037,16.60995 -3.58675,34.42634 -2.47002,51.50592 1.81885,5.55599 9.26982,9.46458 3.47631,13.6672 -5.59094,5.13463 -10.24483,1.3104 -14.72631,-2.8922 -5.58652,-4.06008 -8.94998,-9.89899 -12.9,-15.3 -11.32151,-9.45323 -16.29117,-25.29329 -15.45,-39.9 -5.9224,-10.51324 2.91595,-28.34398 -5.8392,-39.0762 -7.94336,-6.41626 -2.33557,20.39784 -5.65739,27.41738 1.34019,14.95585 -2.06245,30.87074 4.14659,44.95882 1.83724,6.67732 7.03535,11.13436 11.4,15.9 3.19794,4.97625 8.09336,8.5411 11.1,13.8 6.0077,3.67969 14.17822,9.30239 8.25,17.24721 -0.95761,8.77695 -12.56948,2.62584 -17.7,-0.10542 -10.30998,-1.88854 -18.86775,-8.78895 -21.74755,-19.15253 -5.36575,-12.62785 -7.16479,-30.06528 -22.58496,-35.23031 -8.01173,-3.15737 -27.82022,-18.43484 -12.35653,-2.53855 14.30472,8.02836 18.39386,21.35277 22.08692,35.34077 1.70172,9.00232 6.04361,11.31981 7.82419,16.66383 4.00025,3.83393 7.04158,11.29783 12.07789,16.275 3.30077,5.82557 15.06862,4.54826 16.725,7.31498 4.03156,-1.53444 9.08433,5.09587 6.2837,10.44726 0.58927,11.08782 -14.33446,7.03913 -21.8087,7.73772 -5.22715,-1.57209 -19.66936,-0.21631 -26.51728,-7.29594 -6.69653,-7.30217 -12.02253,-15.46552 -20.28272,-20.64465 -5.51263,-7.46301 -14.81727,-7.70543 -22.43556,-11.80941 -13.23512,-9.99214 -6.67008,4.68728 2.63556,9.15096 5.22007,3.8113 11.50457,7.95292 16.17887,12.94683 4.34002,4.23769 9.3245,9.08811 13.6941,13.37087 3.21606,4.91192 6.75116,9.95263 8.37703,12.38134 0.89346,3.29881 6.24687,8.09703 8.29554,5.1 3.37555,5.12373 14.01594,-1.83944 11.35446,1.35 5.45355,0.71842 10.10555,-1.05325 15.09274,-0.17223 10.2679,-6.46296 22.94865,5.03787 13.70726,14.58535 -11.14237,3.38534 -23.50981,5.80146 -34.14173,4.20051 -9.31944,-8.65871 -21.53629,-5.89276 -32.31234,-9.46362 -10.88167,-5.49308 -27.91945,-8.94117 -35.24227,2.6551 6.44809,13.14065 15.61655,-14.96252 27.82134,-1.61588 7.10704,3.82242 14.50297,7.08751 22.575,10.3608 7.51719,5.67714 18.32183,5.84017 24.3,13.45251 11.873,2.2625 24.97139,2.05023 35.4202,-4.90679 5.63779,-4.76247 8.66015,3.82639 11.36928,7.65138 0.88625,5.66483 -6.49115,10.94439 -10.78948,14.70306 -9.66686,6.93126 -21.46269,3.48552 -32.84756,2.28217 -14.44509,-0.78049 -33.46548,-1.39124 -41.64385,12.85516 -6.51566,5.4415 -9.8438,26.90883 -0.59114,11.4941 3.19715,-10.26602 13.50317,-13.06435 21.30752,-16.71566 4.55799,0.48962 15.19704,-1.86567 20.91235,1.33607 7.72625,-0.36096 13.90905,1.72453 21.30815,1.94088 10.69195,1.89962 5.514,4.73508 12.80218,2.31337 3.02326,-1.64361 11.803,-6.38633 16.43869,-10.4061 5.64076,-8.00197 17.11183,3.00902 15.60904,2.77502 1.32368,5.59235 -4.56252,18.64265 -13.09911,22.425 -13.21883,5.03996 -30.07566,1.35162 -39.4713,14.14998 -10.34585,10.53592 -7.03407,26.40242 -12.9852,38.83654 10.65935,4.49297 5.30804,-26.44665 12.43652,-31.87941 1.86195,-8.48093 13.78993,-14.18746 19.71949,-13.73454 5.83846,-3.88235 11.82325,-0.13383 17.50421,-1.67269 4.30938,1.05236 7.68866,0.73253 11.66981,-0.80916 7.37967,3.51769 9.56466,-7.30114 15.21026,-7.90099 4.49631,-13.17345 14.18887,-13.74132 15.68591,-10.57584 6.84652,-7.22518 7.3809,11.26904 8.78201,14.7861 1.64326,3.65115 -1.81195,13.76493 -5.01315,16.67556 -0.64899,9.18776 -7.6515,14.3083 -10.74673,22.95925 -0.54352,3.45231 -2.72568,8.14858 0.35077,8.59023 -5.80044,1.91793 -0.60785,10.65458 -1.04102,13.44767 -1.80938,-3.28952 -3.1616,3.31558 -0.76468,4.7298 3.92093,0.675 6.24284,13.32566 8.83351,8.65472 5.10471,-0.75147 5.46332,10.27608 12.6657,10.15979 6.12775,1.22953 5.08773,3.27562 6.97933,5.85298 9.31685,1.92296 12.38073,-9.05007 5.05172,-16.37033 z m 76.492,-7.4292 c 0.7837,-0.0974 -6.1866,-11.06287 -3.8314,-3.59574 0.2838,0.88401 2.9267,7.07776 3.8314,3.59574 z m -5.2569,-77.63851 c -0.9318,-1.08799 -0.5693,1.51061 0,0 z m 90.7352,-53.83871 c -2.5162,-11.11065 -19.4451,-2.86853 -4.5656,-1.37358 -0.01,2.25293 4.1465,4.17978 4.5656,1.37358 z m -12.8638,-4.32213 c 1.6976,-5.54774 -2.7771,2.08752 0,0 z"
       id="path4147-3"
       inkscape:connector-curvature="0"
       sodipodi:nodetypes="ccccccccccccccccccccccccccccccccccccccccccccccccccccccccccccccccccccccccccccccccccccccccccccccccccccccccccccccccccccccccccccccccccccccccccccccccccccccccccccccccccccccccccccccccccccccccccccccccccccccccccccccccccccccccccccccccccccccccccccccccccccccccccccccccccccccccccccccccccccccccccccccccccccccccccccccccccccccccccccccccccccccccccccccccccccccccccccccccccccccc" />
    <path
       style="fill:#000000;stroke:none;stroke-opacity:1"
       d="m 345.70777,541.8736 c 3.10883,-0.90316 1.22531,-1.84747 4.0111,-1.38226 3.98248,0.66504 -1.25365,-23.48634 -1.10349,-24.43094 1.36655,15.54732 1.66618,16.89161 1.8843,18.91134 0.60436,0.80189 0.0637,4.08873 0.0637,4.08873 -0.44268,0.87284 -3.21108,-0.11897 -3.94957,0.89098 -0.87051,1.1905 -0.79769,0.72747 -2.82797,0.79269 -1.94634,0.0625 -1.69595,0.28684 -2.56646,-0.90364 -0.73849,-1.00994 -2.34674,-0.75765 -3.62941,-0.42223 -1.33112,0.3481 -1.95593,-2.32702 -0.83818,-4.46819 0.51937,-1.86874 1.87764,-17.76311 1.20726,-19.03459 -0.84592,16.54981 -4.94179,24.85352 0.37823,24.81128 3.66639,-0.0291 1.74153,1.29815 3.9307,1.47583 1.11015,0.0901 1.95518,0.10231 3.43983,-0.329 z"
       id="path5056"
       inkscape:connector-curvature="0"
       sodipodi:nodetypes="ssccsssssccsss" />
    <path
       style="fill:#000000;stroke:#000000;stroke-width:1;stroke-miterlimit:4;stroke-dasharray:none;stroke-opacity:1;fill-opacity:1"
       d="m 302.58718,507.43826 c -3.36622,-1.4026 -3.21725,-3.20371 -6.67896,-5.11841 -3.61844,-1.5691 -3.03159,-2.22918 1.38239,-5.55998 7.67598,-5.79229 6.40543,-5.03533 16.00675,-5.02715 9.67191,0.008 13.75058,1.36793 15.68605,5.22927 1.23375,2.46141 1.05747,4.72995 0.14351,5.30032 -4.10511,5.44663 -9.12766,7.07016 -15.36588,7.39304 -5.80395,0.24198 -6.98743,0.006 -11.17386,-2.21709 z"
       id="path5050"
       inkscape:connector-curvature="0"
       sodipodi:nodetypes="ccscsccc" />
    <path
       style="fill:#000000;stroke:#000000;stroke-width:1;stroke-miterlimit:4;stroke-dasharray:none;stroke-opacity:1;fill-opacity:1"
       d="m 367.57561,508.33014 c -6.3312,-1.67751 -6.15509,-3.91753 -6.7405,-6.10157 -1.10583,-1.16634 -1.12948,-2.71244 0.0755,-5.1623 1.84981,-3.76079 5.74796,-5.08509 14.9918,-5.09311 9.17638,-0.008 7.80559,-0.78467 15.14184,4.8568 4.21862,3.24406 4.47221,4.2329 0.77255,5.94659 -5.29162,2.25893 -2.74778,2.87766 -5.67822,4.448 -3.62463,1.92587 -5.48579,2.36823 -9.793,2.32762 -2.92484,-0.0276 -6.87135,-0.57749 -8.77001,-1.22203 z"
       id="path5040"
       inkscape:connector-curvature="0"
       sodipodi:nodetypes="ccsssccccc" />
    <path
       style="fill:#000000"
       d="m 396.88806,488.54012 c -2.475,-2.16259 -4.62187,-5.35739 -7.8574,-7.09957 -5.74838,-3.09524 -5.50604,-1.62392 -10.99492,-0.4066 -5.9637,1.32263 -20.32938,1.68406 -23.65783,4.32309 -3.10306,2.46033 0.92655,4.55587 8.43169,1.4689 5.39467,-2.21892 8.12054,-2.70581 15.14796,-2.70566 7.30278,1.5e-4 9.3939,0.40351 14.14662,2.7288 3.06741,1.50074 6.12874,3.39329 6.80294,4.20566 0.67421,0.81237 1.50823,1.4636 1.85338,1.44719 0.34516,-0.0164 -1.39744,-1.79923 -3.87244,-3.96181 z"
       id="path5028"
       inkscape:connector-curvature="0" />
    <path
       style="fill:#000000"
       d="m 291.73737,488.45917 c 2.475,-2.16259 4.62187,-5.35739 7.8574,-7.09957 5.74838,-3.09524 5.50604,-1.62392 10.99492,-0.4066 5.9637,1.32263 20.32938,1.68406 23.65783,4.32309 3.10306,2.46033 -0.92655,4.55587 -8.43169,1.4689 -5.39467,-2.21892 -8.12054,-2.70581 -15.14796,-2.70566 -7.30278,1.5e-4 -9.3939,0.40351 -14.14662,2.7288 -3.06741,1.50074 -6.12874,3.39329 -6.80294,4.20566 -0.67421,0.81237 -1.50823,1.4636 -1.85338,1.44719 -0.34516,-0.0164 1.39744,-1.79923 3.87244,-3.96181 z"
       id="path5028-5"
       inkscape:connector-curvature="0" />
    <path
       style="fill:#000000;fill-opacity:1"
       d="m 333.8659,498.18804 c -2.02133,0.19788 -6.48036,2.33192 -8.47495,2.72957 -0.65481,0.74966 4.7249,-0.71929 5.31621,-0.56917 13.50123,-4.22052 15.05303,-4.25165 24.47653,-0.82951 1.9901,0.26844 4.44996,1.13446 7.51435,2.04431 0.4603,-0.66021 -5.37642,-2.90079 -5.99194,-3.04818 -12.46182,-4.77049 -13.00747,-4.41606 -22.8402,-0.32702 z"
       id="path5062-3"
       inkscape:connector-curvature="0"
       sodipodi:nodetypes="ccccccc" />
    <path
       style="fill:none;fill-opacity:1;stroke:#000000;stroke-width:0.72701257;stroke-opacity:1"
       d="m 354.92059,566.53375 c 4.1384,-2.26722 5.61224,-3.32142 4.64355,-3.32142 -0.78055,0 -3.43653,-0.33192 -5.71368,-1.08687 -5.43096,-1.80052 -8.26816,-0.57985 -10.7785,-0.59246 -2.04113,-0.0103 -5.12773,-0.86247 -11.72622,0.69594 -2.06463,0.48762 -4.04492,0.98339 -4.78662,0.98339 -2.09339,0 9.16247,6.19378 12.27493,6.75452 5.57932,1.0052 9.52058,0.16408 16.08654,-3.4331 z"
       id="path5064-5"
       inkscape:connector-curvature="0"
       sodipodi:nodetypes="ssssssss" />
  </g>
</svg>
